G75*
%MOIN*%
%OFA0B0*%
%FSLAX24Y24*%
%IPPOS*%
%LPD*%
%AMOC8*
5,1,8,0,0,1.08239X$1,22.5*
%
%ADD10C,0.0069*%
%ADD11C,0.0040*%
%ADD12R,0.0079X0.0374*%
%ADD13R,0.0079X0.0413*%
%ADD14C,0.0048*%
%ADD15C,0.0044*%
%ADD16C,0.0079*%
%ADD17C,0.0110*%
%ADD18C,0.0099*%
D10*
X009389Y010712D02*
X009597Y010712D01*
X009389Y010712D02*
X009389Y010998D01*
X009597Y010998D01*
X009597Y010712D01*
X009597Y010780D02*
X009389Y010780D01*
X009389Y010848D02*
X009597Y010848D01*
X009597Y010916D02*
X009389Y010916D01*
X009389Y010984D02*
X009597Y010984D01*
X009597Y011212D02*
X009389Y011212D01*
X009389Y011498D01*
X009597Y011498D01*
X009597Y011212D01*
X009597Y011280D02*
X009389Y011280D01*
X009389Y011348D02*
X009597Y011348D01*
X009597Y011416D02*
X009389Y011416D01*
X009389Y011484D02*
X009597Y011484D01*
X009901Y011212D02*
X010109Y011212D01*
X009901Y011212D02*
X009901Y011498D01*
X010109Y011498D01*
X010109Y011212D01*
X010109Y011280D02*
X009901Y011280D01*
X009901Y011348D02*
X010109Y011348D01*
X010109Y011416D02*
X009901Y011416D01*
X009901Y011484D02*
X010109Y011484D01*
X010109Y010712D02*
X009901Y010712D01*
X009901Y010998D01*
X010109Y010998D01*
X010109Y010712D01*
X010109Y010780D02*
X009901Y010780D01*
X009901Y010848D02*
X010109Y010848D01*
X010109Y010916D02*
X009901Y010916D01*
X009901Y010984D02*
X010109Y010984D01*
X012142Y009465D02*
X012142Y009257D01*
X011856Y009257D01*
X011856Y009465D01*
X012142Y009465D01*
X012142Y009325D02*
X011856Y009325D01*
X011856Y009393D02*
X012142Y009393D01*
X012142Y009461D02*
X011856Y009461D01*
X012142Y008953D02*
X012142Y008745D01*
X011856Y008745D01*
X011856Y008953D01*
X012142Y008953D01*
X012142Y008813D02*
X011856Y008813D01*
X011856Y008881D02*
X012142Y008881D01*
X012142Y008949D02*
X011856Y008949D01*
X004192Y012345D02*
X004192Y012553D01*
X004192Y012345D02*
X003906Y012345D01*
X003906Y012553D01*
X004192Y012553D01*
X004192Y012413D02*
X003906Y012413D01*
X003906Y012481D02*
X004192Y012481D01*
X004192Y012549D02*
X003906Y012549D01*
X004192Y012857D02*
X004192Y013065D01*
X004192Y012857D02*
X003906Y012857D01*
X003906Y013065D01*
X004192Y013065D01*
X004192Y012925D02*
X003906Y012925D01*
X003906Y012993D02*
X004192Y012993D01*
X004192Y013061D02*
X003906Y013061D01*
X003901Y014262D02*
X004109Y014262D01*
X003901Y014262D02*
X003901Y014548D01*
X004109Y014548D01*
X004109Y014262D01*
X004109Y014330D02*
X003901Y014330D01*
X003901Y014398D02*
X004109Y014398D01*
X004109Y014466D02*
X003901Y014466D01*
X003901Y014534D02*
X004109Y014534D01*
X003597Y014262D02*
X003389Y014262D01*
X003389Y014548D01*
X003597Y014548D01*
X003597Y014262D01*
X003597Y014330D02*
X003389Y014330D01*
X003389Y014398D02*
X003597Y014398D01*
X003597Y014466D02*
X003389Y014466D01*
X003389Y014534D02*
X003597Y014534D01*
X021142Y009465D02*
X021142Y009257D01*
X020856Y009257D01*
X020856Y009465D01*
X021142Y009465D01*
X021142Y009325D02*
X020856Y009325D01*
X020856Y009393D02*
X021142Y009393D01*
X021142Y009461D02*
X020856Y009461D01*
X021142Y008953D02*
X021142Y008745D01*
X020856Y008745D01*
X020856Y008953D01*
X021142Y008953D01*
X021142Y008813D02*
X020856Y008813D01*
X020856Y008881D02*
X021142Y008881D01*
X021142Y008949D02*
X020856Y008949D01*
X021642Y008953D02*
X021642Y008745D01*
X021356Y008745D01*
X021356Y008953D01*
X021642Y008953D01*
X021642Y008813D02*
X021356Y008813D01*
X021356Y008881D02*
X021642Y008881D01*
X021642Y008949D02*
X021356Y008949D01*
X021642Y009257D02*
X021642Y009465D01*
X021642Y009257D02*
X021356Y009257D01*
X021356Y009465D01*
X021642Y009465D01*
X021642Y009325D02*
X021356Y009325D01*
X021356Y009393D02*
X021642Y009393D01*
X021642Y009461D02*
X021356Y009461D01*
X022142Y009465D02*
X022142Y009257D01*
X021856Y009257D01*
X021856Y009465D01*
X022142Y009465D01*
X022142Y009325D02*
X021856Y009325D01*
X021856Y009393D02*
X022142Y009393D01*
X022142Y009461D02*
X021856Y009461D01*
X022142Y008953D02*
X022142Y008745D01*
X021856Y008745D01*
X021856Y008953D01*
X022142Y008953D01*
X022142Y008813D02*
X021856Y008813D01*
X021856Y008881D02*
X022142Y008881D01*
X022142Y008949D02*
X021856Y008949D01*
X023389Y024498D02*
X023597Y024498D01*
X023597Y024212D01*
X023389Y024212D01*
X023389Y024498D01*
X023389Y024280D02*
X023597Y024280D01*
X023597Y024348D02*
X023389Y024348D01*
X023389Y024416D02*
X023597Y024416D01*
X023597Y024484D02*
X023389Y024484D01*
X023901Y024498D02*
X024109Y024498D01*
X024109Y024212D01*
X023901Y024212D01*
X023901Y024498D01*
X023901Y024280D02*
X024109Y024280D01*
X024109Y024348D02*
X023901Y024348D01*
X023901Y024416D02*
X024109Y024416D01*
X024109Y024484D02*
X023901Y024484D01*
D11*
X003198Y013846D02*
X003198Y013296D01*
X003198Y013846D02*
X003288Y013846D01*
X003288Y013296D01*
X003198Y013296D01*
X003198Y013335D02*
X003288Y013335D01*
X003288Y013374D02*
X003198Y013374D01*
X003198Y013413D02*
X003288Y013413D01*
X003288Y013452D02*
X003198Y013452D01*
X003198Y013491D02*
X003288Y013491D01*
X003288Y013530D02*
X003198Y013530D01*
X003198Y013569D02*
X003288Y013569D01*
X003288Y013608D02*
X003198Y013608D01*
X003198Y013647D02*
X003288Y013647D01*
X003288Y013686D02*
X003198Y013686D01*
X003198Y013725D02*
X003288Y013725D01*
X003288Y013764D02*
X003198Y013764D01*
X003198Y013803D02*
X003288Y013803D01*
X003288Y013842D02*
X003198Y013842D01*
X003001Y013846D02*
X003001Y013296D01*
X003001Y013846D02*
X003091Y013846D01*
X003091Y013296D01*
X003001Y013296D01*
X003001Y013335D02*
X003091Y013335D01*
X003091Y013374D02*
X003001Y013374D01*
X003001Y013413D02*
X003091Y013413D01*
X003091Y013452D02*
X003001Y013452D01*
X003001Y013491D02*
X003091Y013491D01*
X003091Y013530D02*
X003001Y013530D01*
X003001Y013569D02*
X003091Y013569D01*
X003091Y013608D02*
X003001Y013608D01*
X003001Y013647D02*
X003091Y013647D01*
X003091Y013686D02*
X003001Y013686D01*
X003001Y013725D02*
X003091Y013725D01*
X003091Y013764D02*
X003001Y013764D01*
X003001Y013803D02*
X003091Y013803D01*
X003091Y013842D02*
X003001Y013842D01*
X002804Y013846D02*
X002804Y013296D01*
X002804Y013846D02*
X002894Y013846D01*
X002894Y013296D01*
X002804Y013296D01*
X002804Y013335D02*
X002894Y013335D01*
X002894Y013374D02*
X002804Y013374D01*
X002804Y013413D02*
X002894Y013413D01*
X002894Y013452D02*
X002804Y013452D01*
X002804Y013491D02*
X002894Y013491D01*
X002894Y013530D02*
X002804Y013530D01*
X002804Y013569D02*
X002894Y013569D01*
X002894Y013608D02*
X002804Y013608D01*
X002804Y013647D02*
X002894Y013647D01*
X002894Y013686D02*
X002804Y013686D01*
X002804Y013725D02*
X002894Y013725D01*
X002894Y013764D02*
X002804Y013764D01*
X002804Y013803D02*
X002894Y013803D01*
X002894Y013842D02*
X002804Y013842D01*
X002607Y013846D02*
X002607Y013296D01*
X002607Y013846D02*
X002697Y013846D01*
X002697Y013296D01*
X002607Y013296D01*
X002607Y013335D02*
X002697Y013335D01*
X002697Y013374D02*
X002607Y013374D01*
X002607Y013413D02*
X002697Y013413D01*
X002697Y013452D02*
X002607Y013452D01*
X002607Y013491D02*
X002697Y013491D01*
X002697Y013530D02*
X002607Y013530D01*
X002607Y013569D02*
X002697Y013569D01*
X002697Y013608D02*
X002607Y013608D01*
X002607Y013647D02*
X002697Y013647D01*
X002697Y013686D02*
X002607Y013686D01*
X002607Y013725D02*
X002697Y013725D01*
X002697Y013764D02*
X002607Y013764D01*
X002607Y013803D02*
X002697Y013803D01*
X002697Y013842D02*
X002607Y013842D01*
X002410Y013846D02*
X002410Y013296D01*
X002410Y013846D02*
X002500Y013846D01*
X002500Y013296D01*
X002410Y013296D01*
X002410Y013335D02*
X002500Y013335D01*
X002500Y013374D02*
X002410Y013374D01*
X002410Y013413D02*
X002500Y013413D01*
X002500Y013452D02*
X002410Y013452D01*
X002410Y013491D02*
X002500Y013491D01*
X002500Y013530D02*
X002410Y013530D01*
X002410Y013569D02*
X002500Y013569D01*
X002500Y013608D02*
X002410Y013608D01*
X002410Y013647D02*
X002500Y013647D01*
X002500Y013686D02*
X002410Y013686D01*
X002410Y013725D02*
X002500Y013725D01*
X002500Y013764D02*
X002410Y013764D01*
X002410Y013803D02*
X002500Y013803D01*
X002500Y013842D02*
X002410Y013842D01*
X002410Y012114D02*
X002410Y011564D01*
X002410Y012114D02*
X002500Y012114D01*
X002500Y011564D01*
X002410Y011564D01*
X002410Y011603D02*
X002500Y011603D01*
X002500Y011642D02*
X002410Y011642D01*
X002410Y011681D02*
X002500Y011681D01*
X002500Y011720D02*
X002410Y011720D01*
X002410Y011759D02*
X002500Y011759D01*
X002500Y011798D02*
X002410Y011798D01*
X002410Y011837D02*
X002500Y011837D01*
X002500Y011876D02*
X002410Y011876D01*
X002410Y011915D02*
X002500Y011915D01*
X002500Y011954D02*
X002410Y011954D01*
X002410Y011993D02*
X002500Y011993D01*
X002500Y012032D02*
X002410Y012032D01*
X002410Y012071D02*
X002500Y012071D01*
X002500Y012110D02*
X002410Y012110D01*
X002607Y012114D02*
X002607Y011564D01*
X002607Y012114D02*
X002697Y012114D01*
X002697Y011564D01*
X002607Y011564D01*
X002607Y011603D02*
X002697Y011603D01*
X002697Y011642D02*
X002607Y011642D01*
X002607Y011681D02*
X002697Y011681D01*
X002697Y011720D02*
X002607Y011720D01*
X002607Y011759D02*
X002697Y011759D01*
X002697Y011798D02*
X002607Y011798D01*
X002607Y011837D02*
X002697Y011837D01*
X002697Y011876D02*
X002607Y011876D01*
X002607Y011915D02*
X002697Y011915D01*
X002697Y011954D02*
X002607Y011954D01*
X002607Y011993D02*
X002697Y011993D01*
X002697Y012032D02*
X002607Y012032D01*
X002607Y012071D02*
X002697Y012071D01*
X002697Y012110D02*
X002607Y012110D01*
X002804Y012114D02*
X002804Y011564D01*
X002804Y012114D02*
X002894Y012114D01*
X002894Y011564D01*
X002804Y011564D01*
X002804Y011603D02*
X002894Y011603D01*
X002894Y011642D02*
X002804Y011642D01*
X002804Y011681D02*
X002894Y011681D01*
X002894Y011720D02*
X002804Y011720D01*
X002804Y011759D02*
X002894Y011759D01*
X002894Y011798D02*
X002804Y011798D01*
X002804Y011837D02*
X002894Y011837D01*
X002894Y011876D02*
X002804Y011876D01*
X002804Y011915D02*
X002894Y011915D01*
X002894Y011954D02*
X002804Y011954D01*
X002804Y011993D02*
X002894Y011993D01*
X002894Y012032D02*
X002804Y012032D01*
X002804Y012071D02*
X002894Y012071D01*
X002894Y012110D02*
X002804Y012110D01*
X003001Y012114D02*
X003001Y011564D01*
X003001Y012114D02*
X003091Y012114D01*
X003091Y011564D01*
X003001Y011564D01*
X003001Y011603D02*
X003091Y011603D01*
X003091Y011642D02*
X003001Y011642D01*
X003001Y011681D02*
X003091Y011681D01*
X003091Y011720D02*
X003001Y011720D01*
X003001Y011759D02*
X003091Y011759D01*
X003091Y011798D02*
X003001Y011798D01*
X003001Y011837D02*
X003091Y011837D01*
X003091Y011876D02*
X003001Y011876D01*
X003001Y011915D02*
X003091Y011915D01*
X003091Y011954D02*
X003001Y011954D01*
X003001Y011993D02*
X003091Y011993D01*
X003091Y012032D02*
X003001Y012032D01*
X003001Y012071D02*
X003091Y012071D01*
X003091Y012110D02*
X003001Y012110D01*
X003198Y012114D02*
X003198Y011564D01*
X003198Y012114D02*
X003288Y012114D01*
X003288Y011564D01*
X003198Y011564D01*
X003198Y011603D02*
X003288Y011603D01*
X003288Y011642D02*
X003198Y011642D01*
X003198Y011681D02*
X003288Y011681D01*
X003288Y011720D02*
X003198Y011720D01*
X003198Y011759D02*
X003288Y011759D01*
X003288Y011798D02*
X003198Y011798D01*
X003198Y011837D02*
X003288Y011837D01*
X003288Y011876D02*
X003198Y011876D01*
X003198Y011915D02*
X003288Y011915D01*
X003288Y011954D02*
X003198Y011954D01*
X003198Y011993D02*
X003288Y011993D01*
X003288Y012032D02*
X003198Y012032D01*
X003198Y012071D02*
X003288Y012071D01*
X003288Y012110D02*
X003198Y012110D01*
D12*
X015454Y012696D03*
X015650Y012696D03*
X015847Y012696D03*
X015847Y011515D03*
X015650Y011515D03*
X015454Y011515D03*
X016044Y011515D03*
X017650Y022515D03*
X017847Y022515D03*
X018044Y022515D03*
X018044Y023696D03*
X017847Y023696D03*
X017650Y023696D03*
X017454Y023696D03*
D13*
X017454Y022534D03*
X016044Y012676D03*
D14*
X005502Y009966D02*
X005502Y009894D01*
X005502Y009966D02*
X005844Y009966D01*
X005844Y009894D01*
X005502Y009894D01*
X005502Y009941D02*
X005844Y009941D01*
X005502Y009710D02*
X005502Y009638D01*
X005502Y009710D02*
X005844Y009710D01*
X005844Y009638D01*
X005502Y009638D01*
X005502Y009685D02*
X005844Y009685D01*
X005502Y009454D02*
X005502Y009382D01*
X005502Y009454D02*
X005844Y009454D01*
X005844Y009382D01*
X005502Y009382D01*
X005502Y009429D02*
X005844Y009429D01*
X005502Y009198D02*
X005502Y009126D01*
X005502Y009198D02*
X005844Y009198D01*
X005844Y009126D01*
X005502Y009126D01*
X005502Y009173D02*
X005844Y009173D01*
X005502Y008942D02*
X005502Y008870D01*
X005502Y008942D02*
X005844Y008942D01*
X005844Y008870D01*
X005502Y008870D01*
X005502Y008917D02*
X005844Y008917D01*
X005502Y008687D02*
X005502Y008615D01*
X005502Y008687D02*
X005844Y008687D01*
X005844Y008615D01*
X005502Y008615D01*
X005502Y008662D02*
X005844Y008662D01*
X005502Y008431D02*
X005502Y008359D01*
X005502Y008431D02*
X005844Y008431D01*
X005844Y008359D01*
X005502Y008359D01*
X005502Y008406D02*
X005844Y008406D01*
X005502Y008175D02*
X005502Y008103D01*
X005502Y008175D02*
X005844Y008175D01*
X005844Y008103D01*
X005502Y008103D01*
X005502Y008150D02*
X005844Y008150D01*
X005502Y007919D02*
X005502Y007847D01*
X005502Y007919D02*
X005844Y007919D01*
X005844Y007847D01*
X005502Y007847D01*
X005502Y007894D02*
X005844Y007894D01*
X005502Y007663D02*
X005502Y007591D01*
X005502Y007663D02*
X005844Y007663D01*
X005844Y007591D01*
X005502Y007591D01*
X005502Y007638D02*
X005844Y007638D01*
X005502Y007407D02*
X005502Y007335D01*
X005502Y007407D02*
X005844Y007407D01*
X005844Y007335D01*
X005502Y007335D01*
X005502Y007382D02*
X005844Y007382D01*
X005502Y007151D02*
X005502Y007079D01*
X005502Y007151D02*
X005844Y007151D01*
X005844Y007079D01*
X005502Y007079D01*
X005502Y007126D02*
X005844Y007126D01*
X003205Y007079D02*
X003205Y007151D01*
X003547Y007151D01*
X003547Y007079D01*
X003205Y007079D01*
X003205Y007126D02*
X003547Y007126D01*
X003205Y007335D02*
X003205Y007407D01*
X003547Y007407D01*
X003547Y007335D01*
X003205Y007335D01*
X003205Y007382D02*
X003547Y007382D01*
X003205Y007591D02*
X003205Y007663D01*
X003547Y007663D01*
X003547Y007591D01*
X003205Y007591D01*
X003205Y007638D02*
X003547Y007638D01*
X003205Y007847D02*
X003205Y007919D01*
X003547Y007919D01*
X003547Y007847D01*
X003205Y007847D01*
X003205Y007894D02*
X003547Y007894D01*
X003205Y008103D02*
X003205Y008175D01*
X003547Y008175D01*
X003547Y008103D01*
X003205Y008103D01*
X003205Y008150D02*
X003547Y008150D01*
X003205Y008359D02*
X003205Y008431D01*
X003547Y008431D01*
X003547Y008359D01*
X003205Y008359D01*
X003205Y008406D02*
X003547Y008406D01*
X003205Y008615D02*
X003205Y008687D01*
X003547Y008687D01*
X003547Y008615D01*
X003205Y008615D01*
X003205Y008662D02*
X003547Y008662D01*
X003205Y008870D02*
X003205Y008942D01*
X003547Y008942D01*
X003547Y008870D01*
X003205Y008870D01*
X003205Y008917D02*
X003547Y008917D01*
X003205Y009126D02*
X003205Y009198D01*
X003547Y009198D01*
X003547Y009126D01*
X003205Y009126D01*
X003205Y009173D02*
X003547Y009173D01*
X003205Y009382D02*
X003205Y009454D01*
X003547Y009454D01*
X003547Y009382D01*
X003205Y009382D01*
X003205Y009429D02*
X003547Y009429D01*
X003205Y009638D02*
X003205Y009710D01*
X003547Y009710D01*
X003547Y009638D01*
X003205Y009638D01*
X003205Y009685D02*
X003547Y009685D01*
X003205Y009894D02*
X003205Y009966D01*
X003547Y009966D01*
X003547Y009894D01*
X003205Y009894D01*
X003205Y009941D02*
X003547Y009941D01*
D15*
X003810Y005884D02*
X003942Y005884D01*
X003810Y005884D02*
X003810Y006116D01*
X003942Y006116D01*
X003942Y005884D01*
X003942Y005927D02*
X003810Y005927D01*
X003810Y005970D02*
X003942Y005970D01*
X003942Y006013D02*
X003810Y006013D01*
X003810Y006056D02*
X003942Y006056D01*
X003942Y006099D02*
X003810Y006099D01*
X004125Y005884D02*
X004257Y005884D01*
X004125Y005884D02*
X004125Y006116D01*
X004257Y006116D01*
X004257Y005884D01*
X004257Y005927D02*
X004125Y005927D01*
X004125Y005970D02*
X004257Y005970D01*
X004257Y006013D02*
X004125Y006013D01*
X004125Y006056D02*
X004257Y006056D01*
X004257Y006099D02*
X004125Y006099D01*
X004440Y005884D02*
X004572Y005884D01*
X004440Y005884D02*
X004440Y006116D01*
X004572Y006116D01*
X004572Y005884D01*
X004572Y005927D02*
X004440Y005927D01*
X004440Y005970D02*
X004572Y005970D01*
X004572Y006013D02*
X004440Y006013D01*
X004440Y006056D02*
X004572Y006056D01*
X004572Y006099D02*
X004440Y006099D01*
X004755Y005884D02*
X004887Y005884D01*
X004755Y005884D02*
X004755Y006116D01*
X004887Y006116D01*
X004887Y005884D01*
X004887Y005927D02*
X004755Y005927D01*
X004755Y005970D02*
X004887Y005970D01*
X004887Y006013D02*
X004755Y006013D01*
X004755Y006056D02*
X004887Y006056D01*
X004887Y006099D02*
X004755Y006099D01*
X004755Y006726D02*
X004887Y006726D01*
X004887Y006494D01*
X004755Y006494D01*
X004755Y006726D01*
X004755Y006537D02*
X004887Y006537D01*
X004887Y006580D02*
X004755Y006580D01*
X004755Y006623D02*
X004887Y006623D01*
X004887Y006666D02*
X004755Y006666D01*
X004755Y006709D02*
X004887Y006709D01*
X004572Y006726D02*
X004440Y006726D01*
X004572Y006726D02*
X004572Y006494D01*
X004440Y006494D01*
X004440Y006726D01*
X004440Y006537D02*
X004572Y006537D01*
X004572Y006580D02*
X004440Y006580D01*
X004440Y006623D02*
X004572Y006623D01*
X004572Y006666D02*
X004440Y006666D01*
X004440Y006709D02*
X004572Y006709D01*
X004257Y006726D02*
X004125Y006726D01*
X004257Y006726D02*
X004257Y006494D01*
X004125Y006494D01*
X004125Y006726D01*
X004125Y006537D02*
X004257Y006537D01*
X004257Y006580D02*
X004125Y006580D01*
X004125Y006623D02*
X004257Y006623D01*
X004257Y006666D02*
X004125Y006666D01*
X004125Y006709D02*
X004257Y006709D01*
X003942Y006726D02*
X003810Y006726D01*
X003942Y006726D02*
X003942Y006494D01*
X003810Y006494D01*
X003810Y006726D01*
X003810Y006537D02*
X003942Y006537D01*
X003942Y006580D02*
X003810Y006580D01*
X003810Y006623D02*
X003942Y006623D01*
X003942Y006666D02*
X003810Y006666D01*
X003810Y006709D02*
X003942Y006709D01*
X006328Y007114D02*
X006328Y007246D01*
X006560Y007246D01*
X006560Y007114D01*
X006328Y007114D01*
X006328Y007157D02*
X006560Y007157D01*
X006560Y007200D02*
X006328Y007200D01*
X006328Y007243D02*
X006560Y007243D01*
X006328Y007429D02*
X006328Y007561D01*
X006560Y007561D01*
X006560Y007429D01*
X006328Y007429D01*
X006328Y007472D02*
X006560Y007472D01*
X006560Y007515D02*
X006328Y007515D01*
X006328Y007558D02*
X006560Y007558D01*
X006328Y007744D02*
X006328Y007876D01*
X006560Y007876D01*
X006560Y007744D01*
X006328Y007744D01*
X006328Y007787D02*
X006560Y007787D01*
X006560Y007830D02*
X006328Y007830D01*
X006328Y007873D02*
X006560Y007873D01*
X006328Y008059D02*
X006328Y008191D01*
X006560Y008191D01*
X006560Y008059D01*
X006328Y008059D01*
X006328Y008102D02*
X006560Y008102D01*
X006560Y008145D02*
X006328Y008145D01*
X006328Y008188D02*
X006560Y008188D01*
X007170Y008191D02*
X007170Y008059D01*
X006938Y008059D01*
X006938Y008191D01*
X007170Y008191D01*
X007170Y008102D02*
X006938Y008102D01*
X006938Y008145D02*
X007170Y008145D01*
X007170Y008188D02*
X006938Y008188D01*
X007170Y007876D02*
X007170Y007744D01*
X006938Y007744D01*
X006938Y007876D01*
X007170Y007876D01*
X007170Y007787D02*
X006938Y007787D01*
X006938Y007830D02*
X007170Y007830D01*
X007170Y007873D02*
X006938Y007873D01*
X007170Y007561D02*
X007170Y007429D01*
X006938Y007429D01*
X006938Y007561D01*
X007170Y007561D01*
X007170Y007472D02*
X006938Y007472D01*
X006938Y007515D02*
X007170Y007515D01*
X007170Y007558D02*
X006938Y007558D01*
X007170Y007246D02*
X007170Y007114D01*
X006938Y007114D01*
X006938Y007246D01*
X007170Y007246D01*
X007170Y007157D02*
X006938Y007157D01*
X006938Y007200D02*
X007170Y007200D01*
X007170Y007243D02*
X006938Y007243D01*
D16*
X004162Y014987D02*
X004162Y015223D01*
X004162Y014987D02*
X003926Y014987D01*
X003926Y015223D01*
X004162Y015223D01*
X004162Y015065D02*
X003926Y015065D01*
X003926Y015143D02*
X004162Y015143D01*
X004162Y015221D02*
X003926Y015221D01*
X003572Y015223D02*
X003572Y014987D01*
X003336Y014987D01*
X003336Y015223D01*
X003572Y015223D01*
X003572Y015065D02*
X003336Y015065D01*
X003336Y015143D02*
X003572Y015143D01*
X003572Y015221D02*
X003336Y015221D01*
D17*
X004196Y019607D02*
X002102Y019607D01*
X004196Y019607D02*
X004196Y017513D01*
X002102Y017513D01*
X002102Y019607D01*
X002102Y017622D02*
X004196Y017622D01*
X004196Y017731D02*
X002102Y017731D01*
X002102Y017840D02*
X004196Y017840D01*
X004196Y017949D02*
X002102Y017949D01*
X002102Y018058D02*
X004196Y018058D01*
X004196Y018167D02*
X002102Y018167D01*
X002102Y018276D02*
X004196Y018276D01*
X004196Y018385D02*
X002102Y018385D01*
X002102Y018494D02*
X004196Y018494D01*
X004196Y018603D02*
X002102Y018603D01*
X002102Y018712D02*
X004196Y018712D01*
X004196Y018821D02*
X002102Y018821D01*
X002102Y018930D02*
X004196Y018930D01*
X004196Y019039D02*
X002102Y019039D01*
X002102Y019148D02*
X004196Y019148D01*
X004196Y019257D02*
X002102Y019257D01*
X002102Y019366D02*
X004196Y019366D01*
X004196Y019475D02*
X002102Y019475D01*
X002102Y019584D02*
X004196Y019584D01*
D18*
X004222Y021739D02*
X003848Y021739D01*
X004222Y021739D02*
X004222Y021051D01*
X003848Y021051D01*
X003848Y021739D01*
X003848Y021149D02*
X004222Y021149D01*
X004222Y021247D02*
X003848Y021247D01*
X003848Y021345D02*
X004222Y021345D01*
X004222Y021443D02*
X003848Y021443D01*
X003848Y021541D02*
X004222Y021541D01*
X004222Y021639D02*
X003848Y021639D01*
X003848Y021737D02*
X004222Y021737D01*
X002450Y021739D02*
X002076Y021739D01*
X002450Y021739D02*
X002450Y021051D01*
X002076Y021051D01*
X002076Y021739D01*
X002076Y021149D02*
X002450Y021149D01*
X002450Y021247D02*
X002076Y021247D01*
X002076Y021345D02*
X002450Y021345D01*
X002450Y021443D02*
X002076Y021443D01*
X002076Y021541D02*
X002450Y021541D01*
X002450Y021639D02*
X002076Y021639D01*
X002076Y021737D02*
X002450Y021737D01*
M02*
