G75*
%MOIN*%
%OFA0B0*%
%FSLAX24Y24*%
%IPPOS*%
%LPD*%
%AMOC8*
5,1,8,0,0,1.08239X$1,22.5*
%
%ADD10C,0.0000*%
%ADD11C,0.0060*%
%ADD12C,0.0040*%
%ADD13C,0.0030*%
%ADD14C,0.0050*%
D10*
X001349Y005105D02*
X009049Y005105D01*
X009066Y005103D01*
X009083Y005099D01*
X009099Y005092D01*
X009113Y005082D01*
X009126Y005069D01*
X009136Y005055D01*
X009143Y005039D01*
X009147Y005022D01*
X009149Y005005D01*
X009149Y003705D01*
X009151Y003688D01*
X009155Y003671D01*
X009162Y003655D01*
X009172Y003641D01*
X009185Y003628D01*
X009199Y003618D01*
X009215Y003611D01*
X009232Y003607D01*
X009249Y003605D01*
X026149Y003605D01*
X026166Y003607D01*
X026183Y003611D01*
X026199Y003618D01*
X026213Y003628D01*
X026226Y003641D01*
X026236Y003655D01*
X026243Y003671D01*
X026247Y003688D01*
X026249Y003705D01*
X026249Y031505D01*
X026247Y031522D01*
X026243Y031539D01*
X026236Y031555D01*
X026226Y031569D01*
X026213Y031582D01*
X026199Y031592D01*
X026183Y031599D01*
X026166Y031603D01*
X026149Y031605D01*
X009249Y031605D01*
X009232Y031603D01*
X009215Y031599D01*
X009199Y031592D01*
X009185Y031582D01*
X009172Y031569D01*
X009162Y031555D01*
X009155Y031539D01*
X009151Y031522D01*
X009149Y031505D01*
X009149Y027201D01*
X009147Y027184D01*
X009143Y027167D01*
X009136Y027151D01*
X009126Y027137D01*
X009113Y027124D01*
X009099Y027114D01*
X009083Y027107D01*
X009066Y027103D01*
X009049Y027101D01*
X001349Y027101D01*
X001332Y027099D01*
X001315Y027095D01*
X001299Y027088D01*
X001285Y027078D01*
X001272Y027065D01*
X001262Y027051D01*
X001255Y027035D01*
X001251Y027018D01*
X001249Y027001D01*
X001249Y005205D01*
X001251Y005188D01*
X001255Y005171D01*
X001262Y005155D01*
X001272Y005141D01*
X001285Y005128D01*
X001299Y005118D01*
X001315Y005111D01*
X001332Y005107D01*
X001349Y005105D01*
X003754Y011405D02*
X003756Y011439D01*
X003762Y011473D01*
X003772Y011506D01*
X003785Y011537D01*
X003803Y011567D01*
X003823Y011595D01*
X003847Y011620D01*
X003873Y011642D01*
X003901Y011660D01*
X003932Y011676D01*
X003964Y011688D01*
X003998Y011696D01*
X004032Y011700D01*
X004066Y011700D01*
X004100Y011696D01*
X004134Y011688D01*
X004166Y011676D01*
X004196Y011660D01*
X004225Y011642D01*
X004251Y011620D01*
X004275Y011595D01*
X004295Y011567D01*
X004313Y011537D01*
X004326Y011506D01*
X004336Y011473D01*
X004342Y011439D01*
X004344Y011405D01*
X004342Y011371D01*
X004336Y011337D01*
X004326Y011304D01*
X004313Y011273D01*
X004295Y011243D01*
X004275Y011215D01*
X004251Y011190D01*
X004225Y011168D01*
X004197Y011150D01*
X004166Y011134D01*
X004134Y011122D01*
X004100Y011114D01*
X004066Y011110D01*
X004032Y011110D01*
X003998Y011114D01*
X003964Y011122D01*
X003932Y011134D01*
X003901Y011150D01*
X003873Y011168D01*
X003847Y011190D01*
X003823Y011215D01*
X003803Y011243D01*
X003785Y011273D01*
X003772Y011304D01*
X003762Y011337D01*
X003756Y011371D01*
X003754Y011405D01*
X007054Y006305D02*
X007056Y006339D01*
X007062Y006373D01*
X007072Y006406D01*
X007085Y006437D01*
X007103Y006467D01*
X007123Y006495D01*
X007147Y006520D01*
X007173Y006542D01*
X007201Y006560D01*
X007232Y006576D01*
X007264Y006588D01*
X007298Y006596D01*
X007332Y006600D01*
X007366Y006600D01*
X007400Y006596D01*
X007434Y006588D01*
X007466Y006576D01*
X007496Y006560D01*
X007525Y006542D01*
X007551Y006520D01*
X007575Y006495D01*
X007595Y006467D01*
X007613Y006437D01*
X007626Y006406D01*
X007636Y006373D01*
X007642Y006339D01*
X007644Y006305D01*
X007642Y006271D01*
X007636Y006237D01*
X007626Y006204D01*
X007613Y006173D01*
X007595Y006143D01*
X007575Y006115D01*
X007551Y006090D01*
X007525Y006068D01*
X007497Y006050D01*
X007466Y006034D01*
X007434Y006022D01*
X007400Y006014D01*
X007366Y006010D01*
X007332Y006010D01*
X007298Y006014D01*
X007264Y006022D01*
X007232Y006034D01*
X007201Y006050D01*
X007173Y006068D01*
X007147Y006090D01*
X007123Y006115D01*
X007103Y006143D01*
X007085Y006173D01*
X007072Y006204D01*
X007062Y006237D01*
X007056Y006271D01*
X007054Y006305D01*
X011277Y007094D02*
X011279Y007141D01*
X011285Y007187D01*
X011295Y007233D01*
X011308Y007278D01*
X011326Y007321D01*
X011347Y007363D01*
X011371Y007403D01*
X011399Y007440D01*
X011430Y007475D01*
X011464Y007508D01*
X011500Y007537D01*
X011539Y007563D01*
X011580Y007586D01*
X011623Y007605D01*
X011667Y007621D01*
X011712Y007633D01*
X011758Y007641D01*
X011805Y007645D01*
X011851Y007645D01*
X011898Y007641D01*
X011944Y007633D01*
X011989Y007621D01*
X012033Y007605D01*
X012076Y007586D01*
X012117Y007563D01*
X012156Y007537D01*
X012192Y007508D01*
X012226Y007475D01*
X012257Y007440D01*
X012285Y007403D01*
X012309Y007363D01*
X012330Y007321D01*
X012348Y007278D01*
X012361Y007233D01*
X012371Y007187D01*
X012377Y007141D01*
X012379Y007094D01*
X012377Y007047D01*
X012371Y007001D01*
X012361Y006955D01*
X012348Y006910D01*
X012330Y006867D01*
X012309Y006825D01*
X012285Y006785D01*
X012257Y006748D01*
X012226Y006713D01*
X012192Y006680D01*
X012156Y006651D01*
X012117Y006625D01*
X012076Y006602D01*
X012033Y006583D01*
X011989Y006567D01*
X011944Y006555D01*
X011898Y006547D01*
X011851Y006543D01*
X011805Y006543D01*
X011758Y006547D01*
X011712Y006555D01*
X011667Y006567D01*
X011623Y006583D01*
X011580Y006602D01*
X011539Y006625D01*
X011500Y006651D01*
X011464Y006680D01*
X011430Y006713D01*
X011399Y006748D01*
X011371Y006785D01*
X011347Y006825D01*
X011326Y006867D01*
X011308Y006910D01*
X011295Y006955D01*
X011285Y007001D01*
X011279Y007047D01*
X011277Y007094D01*
X016499Y006900D02*
X016501Y006931D01*
X016507Y006962D01*
X016517Y006992D01*
X016530Y007020D01*
X016547Y007047D01*
X016567Y007071D01*
X016590Y007093D01*
X016615Y007111D01*
X016643Y007126D01*
X016672Y007138D01*
X016702Y007146D01*
X016733Y007150D01*
X016765Y007150D01*
X016796Y007146D01*
X016826Y007138D01*
X016855Y007126D01*
X016883Y007111D01*
X016908Y007093D01*
X016931Y007071D01*
X016951Y007047D01*
X016968Y007020D01*
X016981Y006992D01*
X016991Y006962D01*
X016997Y006931D01*
X016999Y006900D01*
X016997Y006869D01*
X016991Y006838D01*
X016981Y006808D01*
X016968Y006780D01*
X016951Y006753D01*
X016931Y006729D01*
X016908Y006707D01*
X016883Y006689D01*
X016855Y006674D01*
X016826Y006662D01*
X016796Y006654D01*
X016765Y006650D01*
X016733Y006650D01*
X016702Y006654D01*
X016672Y006662D01*
X016643Y006674D01*
X016615Y006689D01*
X016590Y006707D01*
X016567Y006729D01*
X016547Y006753D01*
X016530Y006780D01*
X016517Y006808D01*
X016507Y006838D01*
X016501Y006869D01*
X016499Y006900D01*
X021119Y007094D02*
X021121Y007141D01*
X021127Y007187D01*
X021137Y007233D01*
X021150Y007278D01*
X021168Y007321D01*
X021189Y007363D01*
X021213Y007403D01*
X021241Y007440D01*
X021272Y007475D01*
X021306Y007508D01*
X021342Y007537D01*
X021381Y007563D01*
X021422Y007586D01*
X021465Y007605D01*
X021509Y007621D01*
X021554Y007633D01*
X021600Y007641D01*
X021647Y007645D01*
X021693Y007645D01*
X021740Y007641D01*
X021786Y007633D01*
X021831Y007621D01*
X021875Y007605D01*
X021918Y007586D01*
X021959Y007563D01*
X021998Y007537D01*
X022034Y007508D01*
X022068Y007475D01*
X022099Y007440D01*
X022127Y007403D01*
X022151Y007363D01*
X022172Y007321D01*
X022190Y007278D01*
X022203Y007233D01*
X022213Y007187D01*
X022219Y007141D01*
X022221Y007094D01*
X022219Y007047D01*
X022213Y007001D01*
X022203Y006955D01*
X022190Y006910D01*
X022172Y006867D01*
X022151Y006825D01*
X022127Y006785D01*
X022099Y006748D01*
X022068Y006713D01*
X022034Y006680D01*
X021998Y006651D01*
X021959Y006625D01*
X021918Y006602D01*
X021875Y006583D01*
X021831Y006567D01*
X021786Y006555D01*
X021740Y006547D01*
X021693Y006543D01*
X021647Y006543D01*
X021600Y006547D01*
X021554Y006555D01*
X021509Y006567D01*
X021465Y006583D01*
X021422Y006602D01*
X021381Y006625D01*
X021342Y006651D01*
X021306Y006680D01*
X021272Y006713D01*
X021241Y006748D01*
X021213Y006785D01*
X021189Y006825D01*
X021168Y006867D01*
X021150Y006910D01*
X021137Y006955D01*
X021127Y007001D01*
X021121Y007047D01*
X021119Y007094D01*
X017699Y028310D02*
X017701Y028341D01*
X017707Y028372D01*
X017717Y028402D01*
X017730Y028430D01*
X017747Y028457D01*
X017767Y028481D01*
X017790Y028503D01*
X017815Y028521D01*
X017843Y028536D01*
X017872Y028548D01*
X017902Y028556D01*
X017933Y028560D01*
X017965Y028560D01*
X017996Y028556D01*
X018026Y028548D01*
X018055Y028536D01*
X018083Y028521D01*
X018108Y028503D01*
X018131Y028481D01*
X018151Y028457D01*
X018168Y028430D01*
X018181Y028402D01*
X018191Y028372D01*
X018197Y028341D01*
X018199Y028310D01*
X018197Y028279D01*
X018191Y028248D01*
X018181Y028218D01*
X018168Y028190D01*
X018151Y028163D01*
X018131Y028139D01*
X018108Y028117D01*
X018083Y028099D01*
X018055Y028084D01*
X018026Y028072D01*
X017996Y028064D01*
X017965Y028060D01*
X017933Y028060D01*
X017902Y028064D01*
X017872Y028072D01*
X017843Y028084D01*
X017815Y028099D01*
X017790Y028117D01*
X017767Y028139D01*
X017747Y028163D01*
X017730Y028190D01*
X017717Y028218D01*
X017707Y028248D01*
X017701Y028279D01*
X017699Y028310D01*
X021119Y028747D02*
X021121Y028794D01*
X021127Y028840D01*
X021137Y028886D01*
X021150Y028931D01*
X021168Y028974D01*
X021189Y029016D01*
X021213Y029056D01*
X021241Y029093D01*
X021272Y029128D01*
X021306Y029161D01*
X021342Y029190D01*
X021381Y029216D01*
X021422Y029239D01*
X021465Y029258D01*
X021509Y029274D01*
X021554Y029286D01*
X021600Y029294D01*
X021647Y029298D01*
X021693Y029298D01*
X021740Y029294D01*
X021786Y029286D01*
X021831Y029274D01*
X021875Y029258D01*
X021918Y029239D01*
X021959Y029216D01*
X021998Y029190D01*
X022034Y029161D01*
X022068Y029128D01*
X022099Y029093D01*
X022127Y029056D01*
X022151Y029016D01*
X022172Y028974D01*
X022190Y028931D01*
X022203Y028886D01*
X022213Y028840D01*
X022219Y028794D01*
X022221Y028747D01*
X022219Y028700D01*
X022213Y028654D01*
X022203Y028608D01*
X022190Y028563D01*
X022172Y028520D01*
X022151Y028478D01*
X022127Y028438D01*
X022099Y028401D01*
X022068Y028366D01*
X022034Y028333D01*
X021998Y028304D01*
X021959Y028278D01*
X021918Y028255D01*
X021875Y028236D01*
X021831Y028220D01*
X021786Y028208D01*
X021740Y028200D01*
X021693Y028196D01*
X021647Y028196D01*
X021600Y028200D01*
X021554Y028208D01*
X021509Y028220D01*
X021465Y028236D01*
X021422Y028255D01*
X021381Y028278D01*
X021342Y028304D01*
X021306Y028333D01*
X021272Y028366D01*
X021241Y028401D01*
X021213Y028438D01*
X021189Y028478D01*
X021168Y028520D01*
X021150Y028563D01*
X021137Y028608D01*
X021127Y028654D01*
X021121Y028700D01*
X021119Y028747D01*
X011277Y028747D02*
X011279Y028794D01*
X011285Y028840D01*
X011295Y028886D01*
X011308Y028931D01*
X011326Y028974D01*
X011347Y029016D01*
X011371Y029056D01*
X011399Y029093D01*
X011430Y029128D01*
X011464Y029161D01*
X011500Y029190D01*
X011539Y029216D01*
X011580Y029239D01*
X011623Y029258D01*
X011667Y029274D01*
X011712Y029286D01*
X011758Y029294D01*
X011805Y029298D01*
X011851Y029298D01*
X011898Y029294D01*
X011944Y029286D01*
X011989Y029274D01*
X012033Y029258D01*
X012076Y029239D01*
X012117Y029216D01*
X012156Y029190D01*
X012192Y029161D01*
X012226Y029128D01*
X012257Y029093D01*
X012285Y029056D01*
X012309Y029016D01*
X012330Y028974D01*
X012348Y028931D01*
X012361Y028886D01*
X012371Y028840D01*
X012377Y028794D01*
X012379Y028747D01*
X012377Y028700D01*
X012371Y028654D01*
X012361Y028608D01*
X012348Y028563D01*
X012330Y028520D01*
X012309Y028478D01*
X012285Y028438D01*
X012257Y028401D01*
X012226Y028366D01*
X012192Y028333D01*
X012156Y028304D01*
X012117Y028278D01*
X012076Y028255D01*
X012033Y028236D01*
X011989Y028220D01*
X011944Y028208D01*
X011898Y028200D01*
X011851Y028196D01*
X011805Y028196D01*
X011758Y028200D01*
X011712Y028208D01*
X011667Y028220D01*
X011623Y028236D01*
X011580Y028255D01*
X011539Y028278D01*
X011500Y028304D01*
X011464Y028333D01*
X011430Y028366D01*
X011399Y028401D01*
X011371Y028438D01*
X011347Y028478D01*
X011326Y028520D01*
X011308Y028563D01*
X011295Y028608D01*
X011285Y028654D01*
X011279Y028700D01*
X011277Y028747D01*
D11*
X015492Y027969D02*
X015719Y027742D01*
X015662Y027685D01*
X015549Y027685D01*
X015492Y027742D01*
X015492Y027969D01*
X015549Y028026D01*
X015662Y028026D01*
X015719Y027969D01*
X015719Y027742D01*
X015860Y027855D02*
X016087Y027855D01*
X015917Y028026D01*
X015917Y027685D01*
X023179Y026990D02*
X023179Y026876D01*
X023236Y026819D01*
X023292Y026819D01*
X023349Y026876D01*
X023349Y026990D01*
X023292Y027046D01*
X023236Y027046D01*
X023179Y026990D01*
X023349Y026990D02*
X023406Y027046D01*
X023462Y027046D01*
X023519Y026990D01*
X023519Y026876D01*
X023462Y026819D01*
X023406Y026819D01*
X023349Y026876D01*
X023349Y026678D02*
X023236Y026678D01*
X023179Y026621D01*
X023179Y026508D01*
X023236Y026451D01*
X023349Y026451D02*
X023406Y026565D01*
X023406Y026621D01*
X023349Y026678D01*
X023519Y026678D02*
X023519Y026451D01*
X023349Y026451D01*
X023236Y026310D02*
X023179Y026253D01*
X023179Y026140D01*
X023236Y026083D01*
X023462Y026083D01*
X023519Y026140D01*
X023519Y026253D01*
X023462Y026310D01*
X023462Y028583D02*
X023236Y028583D01*
X023179Y028640D01*
X023179Y028753D01*
X023236Y028810D01*
X023236Y028951D02*
X023179Y029008D01*
X023179Y029121D01*
X023236Y029178D01*
X023349Y029178D01*
X023406Y029121D01*
X023406Y029065D01*
X023349Y028951D01*
X023519Y028951D01*
X023519Y029178D01*
X023519Y029319D02*
X023519Y029546D01*
X023462Y029546D01*
X023236Y029319D01*
X023179Y029319D01*
X023462Y028810D02*
X023519Y028753D01*
X023519Y028640D01*
X023462Y028583D01*
X008249Y023005D02*
X008249Y022606D01*
X007969Y022340D02*
X007912Y022396D01*
X007686Y022169D01*
X007629Y022226D01*
X007629Y022340D01*
X007686Y022396D01*
X007912Y022396D01*
X007969Y022340D02*
X007969Y022226D01*
X007912Y022169D01*
X007686Y022169D01*
X007686Y022028D02*
X007742Y022028D01*
X007799Y021971D01*
X007799Y021801D01*
X007686Y021801D01*
X007629Y021858D01*
X007629Y021971D01*
X007686Y022028D01*
X007912Y021915D02*
X007799Y021801D01*
X007912Y021915D02*
X007969Y022028D01*
X008249Y022212D02*
X008249Y021812D01*
X007969Y021603D02*
X007969Y021490D01*
X007912Y021433D01*
X007686Y021433D01*
X007629Y021490D01*
X007629Y021603D01*
X007686Y021660D01*
X007912Y021660D02*
X007969Y021603D01*
X008249Y021419D02*
X008249Y021019D01*
X008249Y020625D02*
X008249Y020226D01*
X008249Y019832D02*
X008249Y019432D01*
X008249Y019039D02*
X008249Y018639D01*
X007869Y018635D02*
X005229Y018635D01*
X005229Y017175D01*
X007869Y017175D01*
X007869Y018635D01*
X008249Y018245D02*
X008249Y017846D01*
X008249Y017452D02*
X008249Y017052D01*
X008249Y016658D02*
X008249Y016259D01*
X008249Y015865D02*
X008249Y015465D01*
X008249Y015072D02*
X008249Y014672D01*
X008249Y014278D02*
X008249Y013879D01*
X008249Y013485D02*
X008249Y013085D01*
X008249Y012692D02*
X008249Y012292D01*
X008249Y011898D02*
X008249Y011499D01*
X008249Y011105D02*
X008249Y010705D01*
X007844Y010705D01*
X007450Y010705D02*
X007045Y010705D01*
X006651Y010705D02*
X006246Y010705D01*
X005853Y010705D02*
X005448Y010705D01*
X005054Y010705D02*
X004649Y010705D01*
X004649Y011211D01*
X004649Y011604D02*
X004649Y012110D01*
X004649Y012503D02*
X004649Y013008D01*
X004649Y013402D02*
X004649Y013907D01*
X004649Y014301D02*
X004649Y014806D01*
X004649Y015200D02*
X004649Y015705D01*
X004011Y015705D01*
X003618Y015705D02*
X002980Y015705D01*
X002586Y015705D02*
X001949Y015705D01*
X001949Y016173D01*
X001949Y016567D02*
X001949Y017035D01*
X001949Y017429D02*
X001949Y017897D01*
X001949Y018290D02*
X001949Y018758D01*
X001949Y019152D02*
X001949Y019620D01*
X001949Y020014D02*
X001949Y020482D01*
X001949Y020876D02*
X001949Y021344D01*
X001949Y021737D02*
X001949Y022205D01*
X002354Y022205D01*
X002747Y022205D02*
X003152Y022205D01*
X003546Y022205D02*
X003950Y022205D01*
X004344Y022205D02*
X004749Y022205D01*
X005010Y022466D01*
X005288Y022745D02*
X005549Y023005D01*
X006186Y023005D01*
X006580Y023005D02*
X007218Y023005D01*
X007611Y023005D02*
X008249Y023005D01*
X004269Y021390D02*
X004269Y021276D01*
X004212Y021219D01*
X004156Y021219D01*
X004099Y021276D01*
X004099Y021446D01*
X003986Y021446D02*
X004212Y021446D01*
X004269Y021390D01*
X003986Y021446D02*
X003929Y021390D01*
X003929Y021276D01*
X003986Y021219D01*
X003986Y021078D02*
X003929Y021021D01*
X003929Y020908D01*
X003986Y020851D01*
X004099Y020851D02*
X004156Y020965D01*
X004156Y021021D01*
X004099Y021078D01*
X003986Y021078D01*
X004099Y020851D02*
X004269Y020851D01*
X004269Y021078D01*
X004212Y020710D02*
X004269Y020653D01*
X004269Y020540D01*
X004212Y020483D01*
X003986Y020483D01*
X003929Y020540D01*
X003929Y020653D01*
X003986Y020710D01*
X005876Y018226D02*
X005770Y018119D01*
X006197Y017692D01*
X006090Y017585D01*
X005876Y017585D01*
X005770Y017692D01*
X005770Y018119D01*
X005876Y018226D02*
X006090Y018226D01*
X006197Y018119D01*
X006197Y017692D01*
X006414Y017799D02*
X006414Y018226D01*
X006414Y017799D02*
X006628Y017585D01*
X006841Y017799D01*
X006841Y018226D01*
X007059Y018119D02*
X007059Y018012D01*
X007165Y017906D01*
X007059Y017799D01*
X007059Y017692D01*
X007165Y017585D01*
X007379Y017585D01*
X007486Y017692D01*
X007272Y017906D02*
X007165Y017906D01*
X007059Y018119D02*
X007165Y018226D01*
X007379Y018226D01*
X007486Y018119D01*
X007869Y013435D02*
X005229Y013435D01*
X005229Y011975D01*
X007869Y011975D01*
X007869Y013435D01*
X007272Y013026D02*
X007486Y012812D01*
X007272Y013026D02*
X007272Y012385D01*
X007059Y012385D02*
X007486Y012385D01*
X006841Y012599D02*
X006628Y012385D01*
X006414Y012599D01*
X006414Y013026D01*
X006197Y012919D02*
X006197Y012812D01*
X006090Y012706D01*
X005876Y012706D01*
X005770Y012599D01*
X005770Y012492D01*
X005876Y012385D01*
X006090Y012385D01*
X006197Y012492D01*
X006197Y012599D01*
X006090Y012706D01*
X005876Y012706D02*
X005770Y012812D01*
X005770Y012919D01*
X005876Y013026D01*
X006090Y013026D01*
X006197Y012919D01*
X006841Y013026D02*
X006841Y012599D01*
X015329Y007187D02*
X015329Y007074D01*
X015386Y007017D01*
X015612Y007017D01*
X015669Y007074D01*
X015669Y007187D01*
X015612Y007244D01*
X015829Y007187D02*
X015829Y007017D01*
X016169Y007017D01*
X016169Y007187D01*
X016112Y007244D01*
X015886Y007244D01*
X015829Y007187D01*
X015386Y007244D02*
X015329Y007187D01*
X017329Y007187D02*
X017329Y007074D01*
X017386Y007017D01*
X017612Y007017D01*
X017669Y007074D01*
X017669Y007187D01*
X017612Y007244D01*
X017499Y007244D02*
X017499Y007130D01*
X017499Y007244D02*
X017386Y007244D01*
X017329Y007187D01*
X017829Y007244D02*
X018169Y007244D01*
X017999Y007244D02*
X017999Y007017D01*
X017829Y007017D02*
X018169Y007017D01*
X023349Y006882D02*
X023349Y007302D01*
X023349Y007695D02*
X023349Y008115D01*
X023349Y008509D02*
X023349Y008929D01*
X023349Y009322D02*
X023349Y009742D01*
X023349Y010136D02*
X023349Y010555D01*
X023920Y010555D01*
X024313Y010555D02*
X024884Y010555D01*
X025278Y010555D02*
X025849Y010555D01*
X025309Y007415D02*
X025309Y006195D01*
X025278Y005255D02*
X025849Y005255D01*
X024884Y005255D02*
X024313Y005255D01*
X023920Y005255D02*
X023349Y005255D01*
X023349Y005675D01*
X023349Y006069D02*
X023349Y006488D01*
X024089Y006685D02*
X024089Y006925D01*
X024089Y007415D01*
X024089Y006925D02*
X024110Y006923D01*
X024130Y006918D01*
X024149Y006909D01*
X024166Y006897D01*
X024181Y006882D01*
X024193Y006865D01*
X024202Y006846D01*
X024207Y006826D01*
X024209Y006805D01*
X024207Y006784D01*
X024202Y006764D01*
X024193Y006745D01*
X024181Y006728D01*
X024166Y006713D01*
X024149Y006701D01*
X024130Y006692D01*
X024110Y006687D01*
X024089Y006685D01*
X024089Y006195D01*
D12*
X024541Y004546D02*
X024682Y004546D01*
X024682Y004265D01*
X024541Y004265D01*
X024495Y004312D01*
X024495Y004499D01*
X024541Y004546D01*
X024789Y004546D02*
X024789Y004265D01*
X024976Y004546D01*
X024976Y004265D01*
X025084Y004312D02*
X025084Y004405D01*
X025177Y004405D01*
X025084Y004312D02*
X025131Y004265D01*
X025224Y004265D01*
X025271Y004312D01*
X025271Y004499D01*
X025224Y004546D01*
X025131Y004546D01*
X025084Y004499D01*
X006171Y005562D02*
X006124Y005515D01*
X006031Y005515D01*
X005984Y005562D01*
X005984Y005655D01*
X006077Y005655D01*
X005984Y005749D02*
X006031Y005796D01*
X006124Y005796D01*
X006171Y005749D01*
X006171Y005562D01*
X005876Y005515D02*
X005876Y005796D01*
X005689Y005515D01*
X005689Y005796D01*
X005582Y005796D02*
X005441Y005796D01*
X005395Y005749D01*
X005395Y005562D01*
X005441Y005515D01*
X005582Y005515D01*
X005582Y005796D01*
D13*
X008696Y010710D02*
X008889Y010710D01*
X008792Y010710D02*
X008792Y011001D01*
X008889Y010904D01*
X008990Y010952D02*
X009039Y011001D01*
X009136Y011001D01*
X009184Y010952D01*
X009184Y010759D01*
X009136Y010710D01*
X009039Y010710D01*
X008990Y010759D01*
X009039Y011710D02*
X008990Y011759D01*
X009039Y011710D02*
X009136Y011710D01*
X009184Y011759D01*
X009184Y011952D01*
X009136Y012001D01*
X009039Y012001D01*
X008990Y011952D01*
X008889Y011855D02*
X008744Y012001D01*
X008744Y011710D01*
X008696Y011855D02*
X008889Y011855D01*
X008595Y011759D02*
X008401Y011952D01*
X008401Y011759D01*
X008449Y011710D01*
X008546Y011710D01*
X008595Y011759D01*
X008595Y011952D01*
X008546Y012001D01*
X008449Y012001D01*
X008401Y011952D01*
X008449Y012210D02*
X008546Y012210D01*
X008595Y012259D01*
X008595Y012355D02*
X008498Y012404D01*
X008449Y012404D01*
X008401Y012355D01*
X008401Y012259D01*
X008449Y012210D01*
X008595Y012355D02*
X008595Y012501D01*
X008401Y012501D01*
X008696Y012355D02*
X008889Y012355D01*
X008744Y012501D01*
X008744Y012210D01*
X008990Y012259D02*
X009039Y012210D01*
X009136Y012210D01*
X009184Y012259D01*
X009184Y012452D01*
X009136Y012501D01*
X009039Y012501D01*
X008990Y012452D01*
X009039Y014710D02*
X008990Y014759D01*
X009039Y014710D02*
X009136Y014710D01*
X009184Y014759D01*
X009184Y014952D01*
X009136Y015001D01*
X009039Y015001D01*
X008990Y014952D01*
X008889Y014855D02*
X008696Y014855D01*
X008595Y014855D02*
X008401Y014855D01*
X008449Y014710D02*
X008449Y015001D01*
X008595Y014855D01*
X008744Y014710D02*
X008744Y015001D01*
X008889Y014855D01*
X007034Y014936D02*
X006849Y014936D01*
X006911Y015060D01*
X006911Y015121D01*
X006849Y015183D01*
X006726Y015183D01*
X006664Y015121D01*
X006664Y014998D01*
X006726Y014936D01*
X006726Y014815D02*
X006664Y014753D01*
X006664Y014630D01*
X006726Y014568D01*
X006972Y014568D01*
X007034Y014630D01*
X007034Y014753D01*
X006972Y014815D01*
X007034Y014936D02*
X007034Y015183D01*
X006849Y015304D02*
X006849Y015490D01*
X006787Y015551D01*
X006726Y015551D01*
X006664Y015490D01*
X006664Y015366D01*
X006726Y015304D01*
X006849Y015304D01*
X006972Y015428D01*
X007034Y015551D01*
X006434Y015551D02*
X006434Y015304D01*
X006249Y015304D01*
X006311Y015428D01*
X006311Y015490D01*
X006249Y015551D01*
X006126Y015551D01*
X006064Y015490D01*
X006064Y015366D01*
X006126Y015304D01*
X006126Y015183D02*
X006064Y015121D01*
X006064Y014998D01*
X006126Y014936D01*
X006126Y014815D02*
X006064Y014753D01*
X006064Y014630D01*
X006126Y014568D01*
X006372Y014568D01*
X006434Y014630D01*
X006434Y014753D01*
X006372Y014815D01*
X006434Y014936D02*
X006249Y014936D01*
X006311Y015060D01*
X006311Y015121D01*
X006249Y015183D01*
X006126Y015183D01*
X006434Y015183D02*
X006434Y014936D01*
X005515Y014270D02*
X005202Y013957D01*
X005202Y014114D02*
X005515Y014114D01*
X005515Y013957D02*
X005202Y014270D01*
X005359Y014270D02*
X005359Y013957D01*
X008595Y017260D02*
X008595Y017309D01*
X008401Y017502D01*
X008401Y017551D01*
X008595Y017551D01*
X008744Y017551D02*
X008889Y017405D01*
X008696Y017405D01*
X008744Y017260D02*
X008744Y017551D01*
X008744Y017710D02*
X008744Y018001D01*
X008889Y017855D01*
X008696Y017855D01*
X008595Y017759D02*
X008546Y017710D01*
X008449Y017710D01*
X008401Y017759D01*
X008401Y017807D01*
X008449Y017855D01*
X008498Y017855D01*
X008449Y017855D02*
X008401Y017904D01*
X008401Y017952D01*
X008449Y018001D01*
X008546Y018001D01*
X008595Y017952D01*
X008990Y017952D02*
X009039Y018001D01*
X009136Y018001D01*
X009184Y017952D01*
X009184Y017759D01*
X009136Y017710D01*
X009039Y017710D01*
X008990Y017759D01*
X009039Y017551D02*
X009136Y017551D01*
X009184Y017502D01*
X009184Y017309D01*
X009136Y017260D01*
X009039Y017260D01*
X008990Y017309D01*
X008990Y017502D02*
X009039Y017551D01*
X006972Y019768D02*
X007034Y019830D01*
X007034Y019953D01*
X006972Y020015D01*
X007034Y020136D02*
X006849Y020136D01*
X006911Y020260D01*
X006911Y020321D01*
X006849Y020383D01*
X006726Y020383D01*
X006664Y020321D01*
X006664Y020198D01*
X006726Y020136D01*
X006726Y020015D02*
X006664Y019953D01*
X006664Y019830D01*
X006726Y019768D01*
X006972Y019768D01*
X007034Y020136D02*
X007034Y020383D01*
X006849Y020504D02*
X006849Y020751D01*
X006664Y020690D02*
X007034Y020690D01*
X006849Y020504D01*
X006434Y020566D02*
X006434Y020690D01*
X006372Y020751D01*
X006311Y020751D01*
X006249Y020690D01*
X006187Y020751D01*
X006126Y020751D01*
X006064Y020690D01*
X006064Y020566D01*
X006126Y020504D01*
X006126Y020383D02*
X006064Y020321D01*
X006064Y020198D01*
X006126Y020136D01*
X006126Y020015D02*
X006064Y019953D01*
X006064Y019830D01*
X006126Y019768D01*
X006372Y019768D01*
X006434Y019830D01*
X006434Y019953D01*
X006372Y020015D01*
X006434Y020136D02*
X006249Y020136D01*
X006311Y020260D01*
X006311Y020321D01*
X006249Y020383D01*
X006126Y020383D01*
X006249Y020628D02*
X006249Y020690D01*
X006372Y020504D02*
X006434Y020566D01*
X006434Y020383D02*
X006434Y020136D01*
X005515Y019470D02*
X005202Y019157D01*
X005202Y019314D02*
X005515Y019314D01*
X005515Y019157D02*
X005202Y019470D01*
X005359Y019470D02*
X005359Y019157D01*
X008401Y020710D02*
X008595Y020710D01*
X008401Y020904D01*
X008401Y020952D01*
X008449Y021001D01*
X008546Y021001D01*
X008595Y020952D01*
X008696Y020855D02*
X008889Y020855D01*
X008744Y021001D01*
X008744Y020710D01*
X008990Y020759D02*
X009039Y020710D01*
X009136Y020710D01*
X009184Y020759D01*
X009184Y020952D01*
X009136Y021001D01*
X009039Y021001D01*
X008990Y020952D01*
X009039Y022710D02*
X008990Y022759D01*
X009039Y022710D02*
X009136Y022710D01*
X009184Y022759D01*
X009184Y022952D01*
X009136Y023001D01*
X009039Y023001D01*
X008990Y022952D01*
X008889Y022855D02*
X008696Y022855D01*
X008595Y022904D02*
X008498Y023001D01*
X008498Y022710D01*
X008595Y022710D02*
X008401Y022710D01*
X008744Y022710D02*
X008744Y023001D01*
X008889Y022855D01*
X008841Y023710D02*
X008889Y023759D01*
X008841Y023710D02*
X008744Y023710D01*
X008696Y023759D01*
X008696Y023807D01*
X008744Y023855D01*
X008792Y023855D01*
X008744Y023855D02*
X008696Y023904D01*
X008696Y023952D01*
X008744Y024001D01*
X008841Y024001D01*
X008889Y023952D01*
X008990Y023952D02*
X009039Y024001D01*
X009136Y024001D01*
X009184Y023952D01*
X009184Y023759D01*
X009136Y023710D01*
X009039Y023710D01*
X008990Y023759D01*
X008595Y023710D02*
X008401Y023904D01*
X008401Y023952D01*
X008449Y024001D01*
X008546Y024001D01*
X008595Y023952D01*
X008595Y023710D02*
X008401Y023710D01*
X011152Y026670D02*
X011104Y026719D01*
X011104Y026815D01*
X011152Y026864D01*
X011104Y026965D02*
X011104Y027158D01*
X011104Y027062D02*
X011394Y027062D01*
X011297Y026965D01*
X011346Y026864D02*
X011394Y026815D01*
X011394Y026719D01*
X011346Y026670D01*
X011152Y026670D01*
X011104Y027260D02*
X011104Y027453D01*
X011104Y027356D02*
X011394Y027356D01*
X011297Y027260D01*
X012104Y027260D02*
X012297Y027453D01*
X012346Y027453D01*
X012394Y027405D01*
X012394Y027308D01*
X012346Y027260D01*
X012394Y027062D02*
X012104Y027062D01*
X012104Y027158D02*
X012104Y026965D01*
X012152Y026864D02*
X012104Y026815D01*
X012104Y026719D01*
X012152Y026670D01*
X012346Y026670D01*
X012394Y026719D01*
X012394Y026815D01*
X012346Y026864D01*
X012297Y026965D02*
X012394Y027062D01*
X012104Y027260D02*
X012104Y027453D01*
X013885Y023001D02*
X013885Y022952D01*
X014079Y022759D01*
X014079Y022710D01*
X014180Y022759D02*
X014228Y022710D01*
X014325Y022710D01*
X014373Y022759D01*
X014474Y022759D02*
X014523Y022710D01*
X014619Y022710D01*
X014668Y022759D01*
X014668Y022952D01*
X014619Y023001D01*
X014523Y023001D01*
X014474Y022952D01*
X014373Y022952D02*
X014325Y023001D01*
X014228Y023001D01*
X014180Y022952D01*
X014180Y022904D01*
X014228Y022855D01*
X014180Y022807D01*
X014180Y022759D01*
X014228Y022855D02*
X014276Y022855D01*
X014079Y023001D02*
X013885Y023001D01*
X018901Y022952D02*
X018901Y022759D01*
X018949Y022710D01*
X019046Y022710D01*
X019095Y022759D01*
X019196Y022759D02*
X019244Y022710D01*
X019341Y022710D01*
X019389Y022759D01*
X019490Y022759D02*
X019539Y022710D01*
X019636Y022710D01*
X019684Y022759D01*
X019684Y022952D01*
X019636Y023001D01*
X019539Y023001D01*
X019490Y022952D01*
X019389Y022952D02*
X019341Y023001D01*
X019244Y023001D01*
X019196Y022952D01*
X019196Y022904D01*
X019244Y022855D01*
X019196Y022807D01*
X019196Y022759D01*
X019244Y022855D02*
X019292Y022855D01*
X019095Y022904D02*
X019046Y022855D01*
X018901Y022855D01*
X018901Y022952D02*
X018949Y023001D01*
X019046Y023001D01*
X019095Y022952D01*
X019095Y022904D01*
X019046Y023210D02*
X019095Y023259D01*
X019095Y023307D01*
X019046Y023355D01*
X018949Y023355D01*
X018901Y023307D01*
X018901Y023259D01*
X018949Y023210D01*
X019046Y023210D01*
X019046Y023355D02*
X019095Y023404D01*
X019095Y023452D01*
X019046Y023501D01*
X018949Y023501D01*
X018901Y023452D01*
X018901Y023404D01*
X018949Y023355D01*
X019196Y023307D02*
X019196Y023259D01*
X019244Y023210D01*
X019341Y023210D01*
X019389Y023259D01*
X019490Y023259D02*
X019539Y023210D01*
X019636Y023210D01*
X019684Y023259D01*
X019684Y023452D01*
X019636Y023501D01*
X019539Y023501D01*
X019490Y023452D01*
X019389Y023452D02*
X019341Y023501D01*
X019244Y023501D01*
X019196Y023452D01*
X019196Y023404D01*
X019244Y023355D01*
X019196Y023307D01*
X019244Y023355D02*
X019292Y023355D01*
X019244Y023710D02*
X019341Y023710D01*
X019389Y023759D01*
X019490Y023759D02*
X019539Y023710D01*
X019636Y023710D01*
X019684Y023759D01*
X019684Y023952D01*
X019636Y024001D01*
X019539Y024001D01*
X019490Y023952D01*
X019389Y023952D02*
X019341Y024001D01*
X019244Y024001D01*
X019196Y023952D01*
X019196Y023904D01*
X019244Y023855D01*
X019196Y023807D01*
X019196Y023759D01*
X019244Y023710D01*
X019244Y023855D02*
X019292Y023855D01*
X019095Y023904D02*
X018998Y024001D01*
X018998Y023710D01*
X019095Y023710D02*
X018901Y023710D01*
X019244Y024210D02*
X019341Y024210D01*
X019389Y024259D01*
X019389Y024355D02*
X019292Y024404D01*
X019244Y024404D01*
X019196Y024355D01*
X019196Y024259D01*
X019244Y024210D01*
X019389Y024355D02*
X019389Y024501D01*
X019196Y024501D01*
X019490Y024452D02*
X019539Y024501D01*
X019636Y024501D01*
X019684Y024452D01*
X019684Y024259D01*
X019636Y024210D01*
X019539Y024210D01*
X019490Y024259D01*
X020902Y026670D02*
X020854Y026719D01*
X020854Y026815D01*
X020902Y026864D01*
X020902Y026965D02*
X020854Y027013D01*
X020854Y027110D01*
X020902Y027158D01*
X020951Y027158D01*
X020999Y027110D01*
X020999Y027062D01*
X020999Y027110D02*
X021047Y027158D01*
X021096Y027158D01*
X021144Y027110D01*
X021144Y027013D01*
X021096Y026965D01*
X021096Y026864D02*
X021144Y026815D01*
X021144Y026719D01*
X021096Y026670D01*
X020902Y026670D01*
X020902Y027260D02*
X020854Y027308D01*
X020854Y027405D01*
X020902Y027453D01*
X020951Y027453D01*
X020999Y027405D01*
X020999Y027356D01*
X020999Y027405D02*
X021047Y027453D01*
X021096Y027453D01*
X021144Y027405D01*
X021144Y027308D01*
X021096Y027260D01*
X021354Y027308D02*
X021354Y027405D01*
X021402Y027453D01*
X021451Y027453D01*
X021499Y027405D01*
X021499Y027260D01*
X021402Y027260D01*
X021354Y027308D01*
X021354Y027158D02*
X021354Y026965D01*
X021354Y027062D02*
X021644Y027062D01*
X021547Y026965D01*
X021596Y026864D02*
X021644Y026815D01*
X021644Y026719D01*
X021596Y026670D01*
X021402Y026670D01*
X021354Y026719D01*
X021354Y026815D01*
X021402Y026864D01*
X021499Y027260D02*
X021596Y027356D01*
X021644Y027453D01*
X021854Y027405D02*
X021854Y027308D01*
X021902Y027260D01*
X021999Y027260D02*
X022047Y027356D01*
X022047Y027405D01*
X021999Y027453D01*
X021902Y027453D01*
X021854Y027405D01*
X021999Y027260D02*
X022144Y027260D01*
X022144Y027453D01*
X022354Y027405D02*
X022644Y027405D01*
X022499Y027260D01*
X022499Y027453D01*
X022451Y027158D02*
X022402Y027158D01*
X022354Y027110D01*
X022354Y027013D01*
X022402Y026965D01*
X022402Y026864D02*
X022354Y026815D01*
X022354Y026719D01*
X022402Y026670D01*
X022596Y026670D01*
X022644Y026719D01*
X022644Y026815D01*
X022596Y026864D01*
X022596Y026965D02*
X022644Y027013D01*
X022644Y027110D01*
X022596Y027158D01*
X022547Y027158D01*
X022499Y027110D01*
X022451Y027158D01*
X022499Y027110D02*
X022499Y027062D01*
X022144Y027062D02*
X021854Y027062D01*
X021854Y027158D02*
X021854Y026965D01*
X021902Y026864D02*
X021854Y026815D01*
X021854Y026719D01*
X021902Y026670D01*
X022096Y026670D01*
X022144Y026719D01*
X022144Y026815D01*
X022096Y026864D01*
X022047Y026965D02*
X022144Y027062D01*
X024433Y023001D02*
X024385Y022952D01*
X024579Y022759D01*
X024530Y022710D01*
X024433Y022710D01*
X024385Y022759D01*
X024385Y022952D01*
X024433Y023001D02*
X024530Y023001D01*
X024579Y022952D01*
X024579Y022759D01*
X024680Y022759D02*
X024728Y022710D01*
X024825Y022710D01*
X024873Y022759D01*
X024974Y022759D02*
X025023Y022710D01*
X025119Y022710D01*
X025168Y022759D01*
X025168Y022952D01*
X025119Y023001D01*
X025023Y023001D01*
X024974Y022952D01*
X024873Y022952D02*
X024825Y023001D01*
X024728Y023001D01*
X024680Y022952D01*
X024680Y022904D01*
X024728Y022855D01*
X024680Y022807D01*
X024680Y022759D01*
X024728Y022855D02*
X024776Y022855D01*
X024728Y021001D02*
X024680Y020952D01*
X024680Y020904D01*
X024873Y020710D01*
X024680Y020710D01*
X024579Y020759D02*
X024530Y020710D01*
X024433Y020710D01*
X024385Y020759D01*
X024385Y020952D01*
X024433Y021001D01*
X024530Y021001D01*
X024579Y020952D01*
X024579Y020904D01*
X024530Y020855D01*
X024385Y020855D01*
X024728Y021001D02*
X024825Y021001D01*
X024873Y020952D01*
X024974Y020952D02*
X025023Y021001D01*
X025119Y021001D01*
X025168Y020952D01*
X025168Y020759D01*
X025119Y020710D01*
X025023Y020710D01*
X024974Y020759D01*
X025023Y018001D02*
X024974Y017952D01*
X025023Y018001D02*
X025119Y018001D01*
X025168Y017952D01*
X025168Y017759D01*
X025119Y017710D01*
X025023Y017710D01*
X024974Y017759D01*
X024873Y017710D02*
X024680Y017904D01*
X024680Y017952D01*
X024728Y018001D01*
X024825Y018001D01*
X024873Y017952D01*
X024873Y017710D02*
X024680Y017710D01*
X024579Y017759D02*
X024579Y017807D01*
X024530Y017855D01*
X024433Y017855D01*
X024385Y017807D01*
X024385Y017759D01*
X024433Y017710D01*
X024530Y017710D01*
X024579Y017759D01*
X024530Y017855D02*
X024579Y017904D01*
X024579Y017952D01*
X024530Y018001D01*
X024433Y018001D01*
X024385Y017952D01*
X024385Y017904D01*
X024433Y017855D01*
X024433Y017501D02*
X024385Y017452D01*
X024385Y017404D01*
X024433Y017355D01*
X024530Y017355D01*
X024579Y017404D01*
X024579Y017452D01*
X024530Y017501D01*
X024433Y017501D01*
X024433Y017355D02*
X024385Y017307D01*
X024385Y017259D01*
X024433Y017210D01*
X024530Y017210D01*
X024579Y017259D01*
X024579Y017307D01*
X024530Y017355D01*
X024680Y017355D02*
X024873Y017355D01*
X024728Y017501D01*
X024728Y017210D01*
X024974Y017259D02*
X025023Y017210D01*
X025119Y017210D01*
X025168Y017259D01*
X025168Y017452D01*
X025119Y017501D01*
X025023Y017501D01*
X024974Y017452D01*
X025023Y015001D02*
X024974Y014952D01*
X025023Y015001D02*
X025119Y015001D01*
X025168Y014952D01*
X025168Y014759D01*
X025119Y014710D01*
X025023Y014710D01*
X024974Y014759D01*
X024873Y014710D02*
X024680Y014904D01*
X024680Y014952D01*
X024728Y015001D01*
X024825Y015001D01*
X024873Y014952D01*
X024873Y014710D02*
X024680Y014710D01*
X024579Y014710D02*
X024579Y014759D01*
X024385Y014952D01*
X024385Y015001D01*
X024579Y015001D01*
X024728Y012501D02*
X024680Y012452D01*
X024680Y012404D01*
X024873Y012210D01*
X024680Y012210D01*
X024579Y012259D02*
X024530Y012210D01*
X024433Y012210D01*
X024385Y012259D01*
X024385Y012307D01*
X024433Y012355D01*
X024579Y012355D01*
X024579Y012259D01*
X024579Y012355D02*
X024482Y012452D01*
X024385Y012501D01*
X024385Y012001D02*
X024385Y011952D01*
X024579Y011759D01*
X024579Y011710D01*
X024680Y011759D02*
X024728Y011710D01*
X024825Y011710D01*
X024873Y011759D01*
X024873Y011952D01*
X024825Y012001D01*
X024728Y012001D01*
X024680Y011952D01*
X024579Y012001D02*
X024385Y012001D01*
X024433Y011501D02*
X024385Y011452D01*
X024385Y011259D01*
X024433Y011210D01*
X024530Y011210D01*
X024579Y011259D01*
X024680Y011259D02*
X024728Y011210D01*
X024825Y011210D01*
X024873Y011259D01*
X024873Y011452D01*
X024825Y011501D01*
X024728Y011501D01*
X024680Y011452D01*
X024579Y011452D02*
X024579Y011404D01*
X024530Y011355D01*
X024385Y011355D01*
X024433Y011501D02*
X024530Y011501D01*
X024579Y011452D01*
X024530Y011001D02*
X024433Y011001D01*
X024385Y010952D01*
X024385Y010904D01*
X024433Y010855D01*
X024530Y010855D01*
X024579Y010904D01*
X024579Y010952D01*
X024530Y011001D01*
X024530Y010855D02*
X024579Y010807D01*
X024579Y010759D01*
X024530Y010710D01*
X024433Y010710D01*
X024385Y010759D01*
X024385Y010807D01*
X024433Y010855D01*
X024680Y010759D02*
X024728Y010710D01*
X024825Y010710D01*
X024873Y010759D01*
X024873Y010952D01*
X024825Y011001D01*
X024728Y011001D01*
X024680Y010952D01*
X025023Y012210D02*
X024974Y012259D01*
X025023Y012210D02*
X025119Y012210D01*
X025168Y012259D01*
X025168Y012452D01*
X025119Y012501D01*
X025023Y012501D01*
X024974Y012452D01*
X024873Y012452D02*
X024825Y012501D01*
X024728Y012501D01*
X024629Y008351D02*
X024483Y008351D01*
X024435Y008302D01*
X024435Y008205D01*
X024483Y008157D01*
X024629Y008157D01*
X024629Y008060D02*
X024629Y008351D01*
X024532Y008157D02*
X024435Y008060D01*
X024334Y008060D02*
X024140Y008254D01*
X024140Y008302D01*
X024189Y008351D01*
X024286Y008351D01*
X024334Y008302D01*
X024334Y008060D02*
X024140Y008060D01*
X023894Y008069D02*
X023894Y008165D01*
X023846Y008214D01*
X023797Y008214D01*
X023749Y008165D01*
X023701Y008214D01*
X023652Y008214D01*
X023604Y008165D01*
X023604Y008069D01*
X023652Y008020D01*
X023604Y007919D02*
X023701Y007822D01*
X023701Y007871D02*
X023701Y007726D01*
X023604Y007726D02*
X023894Y007726D01*
X023894Y007871D01*
X023846Y007919D01*
X023749Y007919D01*
X023701Y007871D01*
X023846Y008020D02*
X023894Y008069D01*
X023749Y008117D02*
X023749Y008165D01*
X024840Y008060D02*
X025034Y008060D01*
X024937Y008060D02*
X024937Y008351D01*
X025034Y008254D01*
X025135Y008302D02*
X025135Y008205D01*
X025183Y008157D01*
X025329Y008157D01*
X025329Y008060D02*
X025329Y008351D01*
X025183Y008351D01*
X025135Y008302D01*
X025232Y008157D02*
X025135Y008060D01*
X025504Y008165D02*
X025794Y008165D01*
X025649Y008020D01*
X025649Y008214D01*
X025649Y007919D02*
X025601Y007871D01*
X025601Y007726D01*
X025601Y007822D02*
X025504Y007919D01*
X025649Y007919D02*
X025746Y007919D01*
X025794Y007871D01*
X025794Y007726D01*
X025504Y007726D01*
X022644Y007735D02*
X022596Y007686D01*
X022402Y007686D01*
X022354Y007735D01*
X022354Y007831D01*
X022402Y007880D01*
X022354Y007981D02*
X022547Y008175D01*
X022596Y008175D01*
X022644Y008126D01*
X022644Y008029D01*
X022596Y007981D01*
X022596Y007880D02*
X022644Y007831D01*
X022644Y007735D01*
X022354Y007981D02*
X022354Y008175D01*
X022499Y008276D02*
X022499Y008469D01*
X022354Y008421D02*
X022644Y008421D01*
X022499Y008276D01*
X022144Y008126D02*
X022144Y008029D01*
X022096Y007981D01*
X021902Y007981D01*
X021854Y008029D01*
X021854Y008126D01*
X021902Y008175D01*
X021902Y008276D02*
X021854Y008324D01*
X021854Y008421D01*
X021902Y008469D01*
X021951Y008469D01*
X021999Y008421D01*
X021999Y008276D01*
X021902Y008276D01*
X021999Y008276D02*
X022096Y008372D01*
X022144Y008469D01*
X022096Y008175D02*
X022144Y008126D01*
X021644Y008126D02*
X021644Y008029D01*
X021596Y007981D01*
X021402Y007981D01*
X021354Y008029D01*
X021354Y008126D01*
X021402Y008175D01*
X021402Y008276D02*
X021354Y008324D01*
X021354Y008421D01*
X021402Y008469D01*
X021451Y008469D01*
X021499Y008421D01*
X021499Y008372D01*
X021499Y008421D02*
X021547Y008469D01*
X021596Y008469D01*
X021644Y008421D01*
X021644Y008324D01*
X021596Y008276D01*
X021596Y008175D02*
X021644Y008126D01*
X021144Y008126D02*
X021144Y008029D01*
X021096Y007981D01*
X021096Y007880D02*
X021144Y007831D01*
X021144Y007735D01*
X021096Y007686D01*
X020902Y007686D01*
X020854Y007735D01*
X020854Y007831D01*
X020902Y007880D01*
X020854Y007981D02*
X021047Y008175D01*
X021096Y008175D01*
X021144Y008126D01*
X021144Y008276D02*
X020999Y008276D01*
X021047Y008372D01*
X021047Y008421D01*
X020999Y008469D01*
X020902Y008469D01*
X020854Y008421D01*
X020854Y008324D01*
X020902Y008276D01*
X020854Y008175D02*
X020854Y007981D01*
X021144Y008276D02*
X021144Y008469D01*
X019636Y011210D02*
X019539Y011210D01*
X019490Y011259D01*
X019389Y011259D02*
X019341Y011210D01*
X019244Y011210D01*
X019196Y011259D01*
X019196Y011355D01*
X019244Y011404D01*
X019292Y011404D01*
X019389Y011355D01*
X019389Y011501D01*
X019196Y011501D01*
X019095Y011452D02*
X019046Y011501D01*
X018949Y011501D01*
X018901Y011452D01*
X019095Y011259D01*
X019046Y011210D01*
X018949Y011210D01*
X018901Y011259D01*
X018901Y011452D01*
X019095Y011452D02*
X019095Y011259D01*
X019490Y011452D02*
X019539Y011501D01*
X019636Y011501D01*
X019684Y011452D01*
X019684Y011259D01*
X019636Y011210D01*
X019636Y011710D02*
X019539Y011710D01*
X019490Y011759D01*
X019389Y011855D02*
X019196Y011855D01*
X019244Y011710D02*
X019244Y012001D01*
X019389Y011855D01*
X019490Y011952D02*
X019539Y012001D01*
X019636Y012001D01*
X019684Y011952D01*
X019684Y011759D01*
X019636Y011710D01*
X019636Y012210D02*
X019539Y012210D01*
X019490Y012259D01*
X019389Y012210D02*
X019196Y012210D01*
X019292Y012210D02*
X019292Y012501D01*
X019389Y012404D01*
X019490Y012452D02*
X019539Y012501D01*
X019636Y012501D01*
X019684Y012452D01*
X019684Y012259D01*
X019636Y012210D01*
X019636Y012710D02*
X019539Y012710D01*
X019490Y012759D01*
X019389Y012710D02*
X019196Y012710D01*
X019292Y012710D02*
X019292Y013001D01*
X019389Y012904D01*
X019490Y012952D02*
X019539Y013001D01*
X019636Y013001D01*
X019684Y012952D01*
X019684Y012759D01*
X019636Y012710D01*
X019636Y013210D02*
X019539Y013210D01*
X019490Y013259D01*
X019389Y013210D02*
X019196Y013210D01*
X019292Y013210D02*
X019292Y013501D01*
X019389Y013404D01*
X019490Y013452D02*
X019539Y013501D01*
X019636Y013501D01*
X019684Y013452D01*
X019684Y013259D01*
X019636Y013210D01*
X019095Y013355D02*
X018901Y013355D01*
X018949Y013210D02*
X018949Y013501D01*
X019095Y013355D01*
X019046Y013001D02*
X018949Y013001D01*
X018901Y012952D01*
X018901Y012904D01*
X018949Y012855D01*
X018901Y012807D01*
X018901Y012759D01*
X018949Y012710D01*
X019046Y012710D01*
X019095Y012759D01*
X018998Y012855D02*
X018949Y012855D01*
X019095Y012952D02*
X019046Y013001D01*
X019046Y012501D02*
X018949Y012501D01*
X018901Y012452D01*
X019095Y012259D01*
X019046Y012210D01*
X018949Y012210D01*
X018901Y012259D01*
X018901Y012452D01*
X019046Y012501D02*
X019095Y012452D01*
X019095Y012259D01*
X014668Y012509D02*
X014619Y012460D01*
X014523Y012460D01*
X014474Y012509D01*
X014373Y012605D02*
X014180Y012605D01*
X014079Y012654D02*
X014030Y012605D01*
X013885Y012605D01*
X013885Y012509D02*
X013885Y012702D01*
X013933Y012751D01*
X014030Y012751D01*
X014079Y012702D01*
X014079Y012654D01*
X014079Y012509D02*
X014030Y012460D01*
X013933Y012460D01*
X013885Y012509D01*
X014228Y012460D02*
X014228Y012751D01*
X014373Y012605D01*
X014474Y012702D02*
X014523Y012751D01*
X014619Y012751D01*
X014668Y012702D01*
X014668Y012509D01*
X014619Y011001D02*
X014668Y010952D01*
X014668Y010759D01*
X014619Y010710D01*
X014523Y010710D01*
X014474Y010759D01*
X014373Y010759D02*
X014325Y010710D01*
X014228Y010710D01*
X014180Y010759D01*
X014180Y010807D01*
X014228Y010855D01*
X014276Y010855D01*
X014228Y010855D02*
X014180Y010904D01*
X014180Y010952D01*
X014228Y011001D01*
X014325Y011001D01*
X014373Y010952D01*
X014474Y010952D02*
X014523Y011001D01*
X014619Y011001D01*
X014619Y010501D02*
X014668Y010452D01*
X014668Y010259D01*
X014619Y010210D01*
X014523Y010210D01*
X014474Y010259D01*
X014373Y010355D02*
X014180Y010355D01*
X014079Y010355D02*
X013933Y010355D01*
X013885Y010307D01*
X013885Y010259D01*
X013933Y010210D01*
X014030Y010210D01*
X014079Y010259D01*
X014079Y010355D01*
X013982Y010452D01*
X013885Y010501D01*
X013933Y010710D02*
X013885Y010759D01*
X013885Y010807D01*
X013933Y010855D01*
X014079Y010855D01*
X014079Y010759D01*
X014030Y010710D01*
X013933Y010710D01*
X014079Y010855D02*
X013982Y010952D01*
X013885Y011001D01*
X014228Y010501D02*
X014373Y010355D01*
X014474Y010452D02*
X014523Y010501D01*
X014619Y010501D01*
X014228Y010501D02*
X014228Y010210D01*
X012644Y009265D02*
X012644Y009169D01*
X012596Y009120D01*
X012596Y009019D02*
X012644Y008971D01*
X012644Y008874D01*
X012596Y008826D01*
X012402Y008826D01*
X012354Y008874D01*
X012354Y008971D01*
X012402Y009019D01*
X012354Y009120D02*
X012354Y009314D01*
X012547Y009314D02*
X012354Y009120D01*
X012547Y009314D02*
X012596Y009314D01*
X012644Y009265D01*
X011144Y009268D02*
X010999Y009268D01*
X011047Y009364D01*
X011047Y009413D01*
X010999Y009461D01*
X010902Y009461D01*
X010854Y009413D01*
X010854Y009316D01*
X010902Y009268D01*
X010902Y009166D02*
X010854Y009118D01*
X010854Y009021D01*
X010902Y008973D01*
X010902Y008872D02*
X010854Y008823D01*
X010854Y008727D01*
X010902Y008678D01*
X011096Y008678D01*
X011144Y008727D01*
X011144Y008823D01*
X011096Y008872D01*
X011096Y008973D02*
X011144Y009021D01*
X011144Y009118D01*
X011096Y009166D01*
X011047Y009166D01*
X010999Y009118D01*
X010951Y009166D01*
X010902Y009166D01*
X010999Y009118D02*
X010999Y009070D01*
X011144Y009268D02*
X011144Y009461D01*
D14*
X013499Y006605D02*
X013749Y006355D01*
X013499Y006355D02*
X016249Y006355D01*
X016249Y006105D01*
X017249Y006105D01*
X017249Y006355D01*
X019999Y006355D01*
X019999Y028855D01*
X013499Y028855D01*
X013499Y006355D01*
X005424Y011310D02*
X005349Y011310D01*
X005049Y011010D01*
X004974Y011010D01*
X004974Y011310D01*
X004974Y011470D02*
X005349Y011470D01*
X005424Y011545D01*
X005424Y011695D01*
X005349Y011770D01*
X004974Y011770D01*
X004974Y016210D02*
X005049Y016360D01*
X005199Y016510D01*
X005199Y016285D01*
X005274Y016210D01*
X005349Y016210D01*
X005424Y016285D01*
X005424Y016435D01*
X005349Y016510D01*
X005199Y016510D01*
X005349Y016670D02*
X004974Y016670D01*
X004974Y016970D02*
X005349Y016970D01*
X005424Y016895D01*
X005424Y016745D01*
X005349Y016670D01*
X023524Y007241D02*
X023899Y007241D01*
X023974Y007166D01*
X023974Y007016D01*
X023899Y006940D01*
X023524Y006940D01*
X023599Y006780D02*
X023524Y006705D01*
X023524Y006555D01*
X023599Y006480D01*
X023674Y006480D01*
X023749Y006555D01*
X023824Y006480D01*
X023899Y006480D01*
X023974Y006555D01*
X023974Y006705D01*
X023899Y006780D01*
X023749Y006630D02*
X023749Y006555D01*
X025088Y009570D02*
X025269Y009570D01*
X025178Y009570D02*
X025178Y009841D01*
X025269Y009750D01*
X025383Y009705D02*
X025383Y009615D01*
X025428Y009570D01*
X025518Y009570D01*
X025563Y009615D01*
X025563Y009705D02*
X025473Y009750D01*
X025428Y009750D01*
X025383Y009705D01*
X025383Y009841D02*
X025563Y009841D01*
X025563Y009705D01*
X025678Y009615D02*
X025723Y009570D01*
X025813Y009570D01*
X025858Y009615D01*
X025858Y009796D01*
X025813Y009841D01*
X025723Y009841D01*
X025678Y009796D01*
X025723Y010070D02*
X025678Y010115D01*
X025723Y010070D02*
X025813Y010070D01*
X025858Y010115D01*
X025858Y010296D01*
X025813Y010341D01*
X025723Y010341D01*
X025678Y010296D01*
X025563Y010341D02*
X025563Y010205D01*
X025473Y010250D01*
X025428Y010250D01*
X025383Y010205D01*
X025383Y010115D01*
X025428Y010070D01*
X025518Y010070D01*
X025563Y010115D01*
X025563Y010341D02*
X025383Y010341D01*
X025269Y010296D02*
X025224Y010341D01*
X025133Y010341D01*
X025088Y010296D01*
X025088Y010250D01*
X025269Y010070D01*
X025088Y010070D01*
M02*
