G75*
%MOIN*%
%OFA0B0*%
%FSLAX24Y24*%
%IPPOS*%
%LPD*%
%AMOC8*
5,1,8,0,0,1.08239X$1,22.5*
%
%ADD10C,0.0671*%
%ADD11C,0.0356*%
%ADD12C,0.1182*%
%ADD13C,0.0089*%
%ADD14C,0.0580*%
%ADD15C,0.1830*%
%ADD16C,0.0611*%
%ADD17R,0.0611X0.0611*%
%ADD18C,0.0065*%
%ADD19C,0.0073*%
%ADD20C,0.0080*%
%ADD21R,0.0680X0.0680*%
%ADD22OC8,0.0680*%
%ADD23C,0.0064*%
%ADD24C,0.0099*%
%ADD25C,0.0114*%
%ADD26C,0.0116*%
D10*
X007349Y006305D03*
X004049Y011405D03*
D11*
X010999Y011355D03*
X010999Y011855D03*
X011499Y011855D03*
X011499Y011355D03*
X011999Y011355D03*
X011999Y011855D03*
X012499Y011855D03*
X012499Y011355D03*
X012499Y010855D03*
X012499Y010355D03*
X011999Y010355D03*
X011499Y010355D03*
X011499Y010855D03*
X011999Y010855D03*
X010999Y010855D03*
X010999Y010355D03*
X010999Y012355D03*
X010999Y012855D03*
X011499Y012855D03*
X011499Y012355D03*
X011999Y012355D03*
X011999Y012855D03*
X012499Y012855D03*
X012499Y012355D03*
X012499Y013355D03*
X012499Y013855D03*
X011999Y013855D03*
X011999Y013355D03*
X011499Y013355D03*
X011499Y013855D03*
X010999Y013855D03*
X010999Y013355D03*
X010999Y014355D03*
X010999Y014855D03*
X010999Y015355D03*
X011499Y015355D03*
X011499Y014855D03*
X011499Y014355D03*
X011999Y014355D03*
X011999Y014855D03*
X011999Y015355D03*
X012499Y015355D03*
X012499Y014855D03*
X012499Y014355D03*
X012499Y015855D03*
X012499Y016355D03*
X011999Y016355D03*
X011999Y015855D03*
X011499Y015855D03*
X011499Y016355D03*
X010999Y016355D03*
X010999Y015855D03*
X010999Y016855D03*
X010999Y017355D03*
X011499Y017355D03*
X011499Y016855D03*
X011999Y016855D03*
X011999Y017355D03*
X012499Y017355D03*
X012499Y016855D03*
X012499Y017855D03*
X012499Y018355D03*
X011999Y018355D03*
X011999Y017855D03*
X011499Y017855D03*
X011499Y018355D03*
X010999Y018355D03*
X010999Y017855D03*
X010999Y018855D03*
X010999Y019355D03*
X011499Y019355D03*
X011499Y018855D03*
X011999Y018855D03*
X011999Y019355D03*
X012499Y019355D03*
X012499Y018855D03*
X012499Y019855D03*
X012499Y020355D03*
X011999Y020355D03*
X011999Y019855D03*
X011499Y019855D03*
X011499Y020355D03*
X010999Y020355D03*
X010999Y019855D03*
X010999Y020855D03*
X010999Y021355D03*
X010999Y021855D03*
X011499Y021855D03*
X011499Y021355D03*
X011499Y020855D03*
X011999Y020855D03*
X011999Y021355D03*
X011999Y021855D03*
X012499Y021855D03*
X012499Y021355D03*
X012499Y020855D03*
X012499Y022355D03*
X012499Y022855D03*
X011999Y022855D03*
X011999Y022355D03*
X011499Y022355D03*
X011499Y022855D03*
X010999Y022855D03*
X010999Y022355D03*
X010999Y023355D03*
X010999Y023855D03*
X011499Y023855D03*
X011499Y023355D03*
X011999Y023355D03*
X011999Y023855D03*
X012499Y023855D03*
X012499Y023355D03*
X012499Y024355D03*
X012499Y024855D03*
X011999Y024855D03*
X011999Y024355D03*
X011499Y024355D03*
X011499Y024855D03*
X010999Y024855D03*
X010999Y024355D03*
X020999Y024355D03*
X021499Y024355D03*
X021499Y024855D03*
X020999Y024855D03*
X020999Y023855D03*
X020999Y023355D03*
X021499Y023355D03*
X021499Y023855D03*
X021999Y023855D03*
X021999Y023355D03*
X021999Y022855D03*
X021999Y022355D03*
X021999Y021855D03*
X022499Y021855D03*
X022499Y021355D03*
X022499Y020855D03*
X022499Y020355D03*
X022499Y019855D03*
X022499Y019355D03*
X022499Y018855D03*
X022499Y018355D03*
X022499Y017855D03*
X022499Y017355D03*
X022499Y016855D03*
X022499Y016355D03*
X022499Y015855D03*
X022499Y015355D03*
X022499Y014855D03*
X022499Y014355D03*
X022499Y013855D03*
X022499Y013355D03*
X022499Y012855D03*
X022499Y012355D03*
X022499Y011855D03*
X022499Y011355D03*
X022499Y010855D03*
X021999Y010855D03*
X021999Y010355D03*
X021499Y010355D03*
X020999Y010355D03*
X020999Y010855D03*
X021499Y010855D03*
X021499Y011355D03*
X020999Y011355D03*
X020999Y011855D03*
X021499Y011855D03*
X021999Y011855D03*
X021999Y011355D03*
X021999Y012355D03*
X021999Y012855D03*
X021499Y012855D03*
X021499Y012355D03*
X020999Y012355D03*
X020999Y012855D03*
X020999Y013355D03*
X021499Y013355D03*
X021499Y013855D03*
X020999Y013855D03*
X020999Y014355D03*
X021499Y014355D03*
X021499Y014855D03*
X020999Y014855D03*
X020999Y015355D03*
X021499Y015355D03*
X021999Y015355D03*
X021999Y014855D03*
X021999Y014355D03*
X021999Y013855D03*
X021999Y013355D03*
X021999Y015855D03*
X021999Y016355D03*
X021499Y016355D03*
X021499Y015855D03*
X020999Y015855D03*
X020999Y016355D03*
X020999Y016855D03*
X021499Y016855D03*
X021499Y017355D03*
X020999Y017355D03*
X020999Y017855D03*
X021499Y017855D03*
X021499Y018355D03*
X020999Y018355D03*
X020999Y018855D03*
X021499Y018855D03*
X021499Y019355D03*
X020999Y019355D03*
X020999Y019855D03*
X021499Y019855D03*
X021499Y020355D03*
X020999Y020355D03*
X020999Y020855D03*
X021499Y020855D03*
X020999Y021355D03*
X020999Y021855D03*
X021499Y021855D03*
X021499Y022355D03*
X020999Y022355D03*
X020999Y022855D03*
X021499Y022855D03*
X022499Y022855D03*
X022499Y022355D03*
X022499Y023355D03*
X022499Y023855D03*
X022499Y024355D03*
X022499Y024855D03*
X021999Y024855D03*
X021999Y024355D03*
X021999Y020855D03*
X021999Y020355D03*
X021999Y019855D03*
X021999Y019355D03*
X021999Y018855D03*
X021999Y018355D03*
X021999Y017855D03*
X021999Y017355D03*
X021999Y016855D03*
D12*
X021670Y007094D03*
X011828Y007094D03*
X011828Y028747D03*
X021670Y028747D03*
D13*
X023359Y024528D02*
X023627Y024528D01*
X023627Y024182D01*
X023359Y024182D01*
X023359Y024528D01*
X023359Y024270D02*
X023627Y024270D01*
X023627Y024358D02*
X023359Y024358D01*
X023359Y024446D02*
X023627Y024446D01*
X023871Y024528D02*
X024139Y024528D01*
X024139Y024182D01*
X023871Y024182D01*
X023871Y024528D01*
X023871Y024270D02*
X024139Y024270D01*
X024139Y024358D02*
X023871Y024358D01*
X023871Y024446D02*
X024139Y024446D01*
X022172Y009495D02*
X022172Y009227D01*
X021826Y009227D01*
X021826Y009495D01*
X022172Y009495D01*
X022172Y009315D02*
X021826Y009315D01*
X021826Y009403D02*
X022172Y009403D01*
X022172Y009491D02*
X021826Y009491D01*
X021672Y009495D02*
X021672Y009227D01*
X021326Y009227D01*
X021326Y009495D01*
X021672Y009495D01*
X021672Y009315D02*
X021326Y009315D01*
X021326Y009403D02*
X021672Y009403D01*
X021672Y009491D02*
X021326Y009491D01*
X021172Y009495D02*
X021172Y009227D01*
X020826Y009227D01*
X020826Y009495D01*
X021172Y009495D01*
X021172Y009315D02*
X020826Y009315D01*
X020826Y009403D02*
X021172Y009403D01*
X021172Y009491D02*
X020826Y009491D01*
X021172Y008983D02*
X021172Y008715D01*
X020826Y008715D01*
X020826Y008983D01*
X021172Y008983D01*
X021172Y008803D02*
X020826Y008803D01*
X020826Y008891D02*
X021172Y008891D01*
X021172Y008979D02*
X020826Y008979D01*
X021672Y008983D02*
X021672Y008715D01*
X021326Y008715D01*
X021326Y008983D01*
X021672Y008983D01*
X021672Y008803D02*
X021326Y008803D01*
X021326Y008891D02*
X021672Y008891D01*
X021672Y008979D02*
X021326Y008979D01*
X022172Y008983D02*
X022172Y008715D01*
X021826Y008715D01*
X021826Y008983D01*
X022172Y008983D01*
X022172Y008803D02*
X021826Y008803D01*
X021826Y008891D02*
X022172Y008891D01*
X022172Y008979D02*
X021826Y008979D01*
X012172Y008983D02*
X012172Y008715D01*
X011826Y008715D01*
X011826Y008983D01*
X012172Y008983D01*
X012172Y008803D02*
X011826Y008803D01*
X011826Y008891D02*
X012172Y008891D01*
X012172Y008979D02*
X011826Y008979D01*
X012172Y009227D02*
X012172Y009495D01*
X012172Y009227D02*
X011826Y009227D01*
X011826Y009495D01*
X012172Y009495D01*
X012172Y009315D02*
X011826Y009315D01*
X011826Y009403D02*
X012172Y009403D01*
X012172Y009491D02*
X011826Y009491D01*
X010139Y010682D02*
X009871Y010682D01*
X009871Y011028D01*
X010139Y011028D01*
X010139Y010682D01*
X010139Y010770D02*
X009871Y010770D01*
X009871Y010858D02*
X010139Y010858D01*
X010139Y010946D02*
X009871Y010946D01*
X009627Y010682D02*
X009359Y010682D01*
X009359Y011028D01*
X009627Y011028D01*
X009627Y010682D01*
X009627Y010770D02*
X009359Y010770D01*
X009359Y010858D02*
X009627Y010858D01*
X009627Y010946D02*
X009359Y010946D01*
X009359Y011182D02*
X009627Y011182D01*
X009359Y011182D02*
X009359Y011528D01*
X009627Y011528D01*
X009627Y011182D01*
X009627Y011270D02*
X009359Y011270D01*
X009359Y011358D02*
X009627Y011358D01*
X009627Y011446D02*
X009359Y011446D01*
X009871Y011182D02*
X010139Y011182D01*
X009871Y011182D02*
X009871Y011528D01*
X010139Y011528D01*
X010139Y011182D01*
X010139Y011270D02*
X009871Y011270D01*
X009871Y011358D02*
X010139Y011358D01*
X010139Y011446D02*
X009871Y011446D01*
X004222Y012315D02*
X004222Y012583D01*
X004222Y012315D02*
X003876Y012315D01*
X003876Y012583D01*
X004222Y012583D01*
X004222Y012403D02*
X003876Y012403D01*
X003876Y012491D02*
X004222Y012491D01*
X004222Y012579D02*
X003876Y012579D01*
X004222Y012827D02*
X004222Y013095D01*
X004222Y012827D02*
X003876Y012827D01*
X003876Y013095D01*
X004222Y013095D01*
X004222Y012915D02*
X003876Y012915D01*
X003876Y013003D02*
X004222Y013003D01*
X004222Y013091D02*
X003876Y013091D01*
X003871Y014232D02*
X004139Y014232D01*
X003871Y014232D02*
X003871Y014578D01*
X004139Y014578D01*
X004139Y014232D01*
X004139Y014320D02*
X003871Y014320D01*
X003871Y014408D02*
X004139Y014408D01*
X004139Y014496D02*
X003871Y014496D01*
X003627Y014232D02*
X003359Y014232D01*
X003359Y014578D01*
X003627Y014578D01*
X003627Y014232D01*
X003627Y014320D02*
X003359Y014320D01*
X003359Y014408D02*
X003627Y014408D01*
X003627Y014496D02*
X003359Y014496D01*
D14*
X002449Y014405D03*
X002449Y015305D03*
X002449Y010105D03*
X002449Y009205D03*
X002449Y008305D03*
X002449Y007405D03*
X002449Y006305D03*
X005749Y006305D03*
X007349Y009705D03*
X010649Y005205D03*
X015049Y005205D03*
X016749Y006900D03*
X022849Y005205D03*
X024849Y004905D03*
X017949Y028310D03*
X010049Y030405D03*
D15*
X017539Y030005D03*
X017539Y005205D03*
D16*
X003217Y022971D03*
X003217Y023759D03*
X003217Y024546D03*
X004005Y024546D03*
X004005Y023759D03*
X004005Y025334D03*
X003217Y025334D03*
D17*
X004005Y022971D03*
D18*
X003170Y013874D02*
X003170Y013268D01*
X003170Y013874D02*
X003316Y013874D01*
X003316Y013268D01*
X003170Y013268D01*
X003170Y013332D02*
X003316Y013332D01*
X003316Y013396D02*
X003170Y013396D01*
X003170Y013460D02*
X003316Y013460D01*
X003316Y013524D02*
X003170Y013524D01*
X003170Y013588D02*
X003316Y013588D01*
X003316Y013652D02*
X003170Y013652D01*
X003170Y013716D02*
X003316Y013716D01*
X003316Y013780D02*
X003170Y013780D01*
X003170Y013844D02*
X003316Y013844D01*
X002973Y013874D02*
X002973Y013268D01*
X002973Y013874D02*
X003119Y013874D01*
X003119Y013268D01*
X002973Y013268D01*
X002973Y013332D02*
X003119Y013332D01*
X003119Y013396D02*
X002973Y013396D01*
X002973Y013460D02*
X003119Y013460D01*
X003119Y013524D02*
X002973Y013524D01*
X002973Y013588D02*
X003119Y013588D01*
X003119Y013652D02*
X002973Y013652D01*
X002973Y013716D02*
X003119Y013716D01*
X003119Y013780D02*
X002973Y013780D01*
X002973Y013844D02*
X003119Y013844D01*
X002776Y013874D02*
X002776Y013268D01*
X002776Y013874D02*
X002922Y013874D01*
X002922Y013268D01*
X002776Y013268D01*
X002776Y013332D02*
X002922Y013332D01*
X002922Y013396D02*
X002776Y013396D01*
X002776Y013460D02*
X002922Y013460D01*
X002922Y013524D02*
X002776Y013524D01*
X002776Y013588D02*
X002922Y013588D01*
X002922Y013652D02*
X002776Y013652D01*
X002776Y013716D02*
X002922Y013716D01*
X002922Y013780D02*
X002776Y013780D01*
X002776Y013844D02*
X002922Y013844D01*
X002579Y013874D02*
X002579Y013268D01*
X002579Y013874D02*
X002725Y013874D01*
X002725Y013268D01*
X002579Y013268D01*
X002579Y013332D02*
X002725Y013332D01*
X002725Y013396D02*
X002579Y013396D01*
X002579Y013460D02*
X002725Y013460D01*
X002725Y013524D02*
X002579Y013524D01*
X002579Y013588D02*
X002725Y013588D01*
X002725Y013652D02*
X002579Y013652D01*
X002579Y013716D02*
X002725Y013716D01*
X002725Y013780D02*
X002579Y013780D01*
X002579Y013844D02*
X002725Y013844D01*
X002382Y013874D02*
X002382Y013268D01*
X002382Y013874D02*
X002528Y013874D01*
X002528Y013268D01*
X002382Y013268D01*
X002382Y013332D02*
X002528Y013332D01*
X002528Y013396D02*
X002382Y013396D01*
X002382Y013460D02*
X002528Y013460D01*
X002528Y013524D02*
X002382Y013524D01*
X002382Y013588D02*
X002528Y013588D01*
X002528Y013652D02*
X002382Y013652D01*
X002382Y013716D02*
X002528Y013716D01*
X002528Y013780D02*
X002382Y013780D01*
X002382Y013844D02*
X002528Y013844D01*
X002382Y012142D02*
X002382Y011536D01*
X002382Y012142D02*
X002528Y012142D01*
X002528Y011536D01*
X002382Y011536D01*
X002382Y011600D02*
X002528Y011600D01*
X002528Y011664D02*
X002382Y011664D01*
X002382Y011728D02*
X002528Y011728D01*
X002528Y011792D02*
X002382Y011792D01*
X002382Y011856D02*
X002528Y011856D01*
X002528Y011920D02*
X002382Y011920D01*
X002382Y011984D02*
X002528Y011984D01*
X002528Y012048D02*
X002382Y012048D01*
X002382Y012112D02*
X002528Y012112D01*
X002579Y012142D02*
X002579Y011536D01*
X002579Y012142D02*
X002725Y012142D01*
X002725Y011536D01*
X002579Y011536D01*
X002579Y011600D02*
X002725Y011600D01*
X002725Y011664D02*
X002579Y011664D01*
X002579Y011728D02*
X002725Y011728D01*
X002725Y011792D02*
X002579Y011792D01*
X002579Y011856D02*
X002725Y011856D01*
X002725Y011920D02*
X002579Y011920D01*
X002579Y011984D02*
X002725Y011984D01*
X002725Y012048D02*
X002579Y012048D01*
X002579Y012112D02*
X002725Y012112D01*
X002776Y012142D02*
X002776Y011536D01*
X002776Y012142D02*
X002922Y012142D01*
X002922Y011536D01*
X002776Y011536D01*
X002776Y011600D02*
X002922Y011600D01*
X002922Y011664D02*
X002776Y011664D01*
X002776Y011728D02*
X002922Y011728D01*
X002922Y011792D02*
X002776Y011792D01*
X002776Y011856D02*
X002922Y011856D01*
X002922Y011920D02*
X002776Y011920D01*
X002776Y011984D02*
X002922Y011984D01*
X002922Y012048D02*
X002776Y012048D01*
X002776Y012112D02*
X002922Y012112D01*
X002973Y012142D02*
X002973Y011536D01*
X002973Y012142D02*
X003119Y012142D01*
X003119Y011536D01*
X002973Y011536D01*
X002973Y011600D02*
X003119Y011600D01*
X003119Y011664D02*
X002973Y011664D01*
X002973Y011728D02*
X003119Y011728D01*
X003119Y011792D02*
X002973Y011792D01*
X002973Y011856D02*
X003119Y011856D01*
X003119Y011920D02*
X002973Y011920D01*
X002973Y011984D02*
X003119Y011984D01*
X003119Y012048D02*
X002973Y012048D01*
X002973Y012112D02*
X003119Y012112D01*
X003170Y012142D02*
X003170Y011536D01*
X003170Y012142D02*
X003316Y012142D01*
X003316Y011536D01*
X003170Y011536D01*
X003170Y011600D02*
X003316Y011600D01*
X003316Y011664D02*
X003170Y011664D01*
X003170Y011728D02*
X003316Y011728D01*
X003316Y011792D02*
X003170Y011792D01*
X003170Y011856D02*
X003316Y011856D01*
X003316Y011920D02*
X003170Y011920D01*
X003170Y011984D02*
X003316Y011984D01*
X003316Y012048D02*
X003170Y012048D01*
X003170Y012112D02*
X003316Y012112D01*
D19*
X015401Y012897D02*
X015507Y012897D01*
X015507Y012495D01*
X015401Y012495D01*
X015401Y012897D01*
X015401Y012567D02*
X015507Y012567D01*
X015507Y012639D02*
X015401Y012639D01*
X015401Y012711D02*
X015507Y012711D01*
X015507Y012783D02*
X015401Y012783D01*
X015401Y012855D02*
X015507Y012855D01*
X015597Y012897D02*
X015703Y012897D01*
X015703Y012495D01*
X015597Y012495D01*
X015597Y012897D01*
X015597Y012567D02*
X015703Y012567D01*
X015703Y012639D02*
X015597Y012639D01*
X015597Y012711D02*
X015703Y012711D01*
X015703Y012783D02*
X015597Y012783D01*
X015597Y012855D02*
X015703Y012855D01*
X015794Y012897D02*
X015900Y012897D01*
X015900Y012495D01*
X015794Y012495D01*
X015794Y012897D01*
X015794Y012567D02*
X015900Y012567D01*
X015900Y012639D02*
X015794Y012639D01*
X015794Y012711D02*
X015900Y012711D01*
X015900Y012783D02*
X015794Y012783D01*
X015794Y012855D02*
X015900Y012855D01*
X015991Y012896D02*
X016097Y012896D01*
X016097Y012456D01*
X015991Y012456D01*
X015991Y012896D01*
X015991Y012528D02*
X016097Y012528D01*
X016097Y012600D02*
X015991Y012600D01*
X015991Y012672D02*
X016097Y012672D01*
X016097Y012744D02*
X015991Y012744D01*
X015991Y012816D02*
X016097Y012816D01*
X016097Y012888D02*
X015991Y012888D01*
X015991Y011716D02*
X016097Y011716D01*
X016097Y011314D01*
X015991Y011314D01*
X015991Y011716D01*
X015991Y011386D02*
X016097Y011386D01*
X016097Y011458D02*
X015991Y011458D01*
X015991Y011530D02*
X016097Y011530D01*
X016097Y011602D02*
X015991Y011602D01*
X015991Y011674D02*
X016097Y011674D01*
X015900Y011716D02*
X015794Y011716D01*
X015900Y011716D02*
X015900Y011314D01*
X015794Y011314D01*
X015794Y011716D01*
X015794Y011386D02*
X015900Y011386D01*
X015900Y011458D02*
X015794Y011458D01*
X015794Y011530D02*
X015900Y011530D01*
X015900Y011602D02*
X015794Y011602D01*
X015794Y011674D02*
X015900Y011674D01*
X015703Y011716D02*
X015597Y011716D01*
X015703Y011716D02*
X015703Y011314D01*
X015597Y011314D01*
X015597Y011716D01*
X015597Y011386D02*
X015703Y011386D01*
X015703Y011458D02*
X015597Y011458D01*
X015597Y011530D02*
X015703Y011530D01*
X015703Y011602D02*
X015597Y011602D01*
X015597Y011674D02*
X015703Y011674D01*
X015507Y011716D02*
X015401Y011716D01*
X015507Y011716D02*
X015507Y011314D01*
X015401Y011314D01*
X015401Y011716D01*
X015401Y011386D02*
X015507Y011386D01*
X015507Y011458D02*
X015401Y011458D01*
X015401Y011530D02*
X015507Y011530D01*
X015507Y011602D02*
X015401Y011602D01*
X015401Y011674D02*
X015507Y011674D01*
X017401Y022314D02*
X017507Y022314D01*
X017401Y022314D02*
X017401Y022754D01*
X017507Y022754D01*
X017507Y022314D01*
X017507Y022386D02*
X017401Y022386D01*
X017401Y022458D02*
X017507Y022458D01*
X017507Y022530D02*
X017401Y022530D01*
X017401Y022602D02*
X017507Y022602D01*
X017507Y022674D02*
X017401Y022674D01*
X017401Y022746D02*
X017507Y022746D01*
X017597Y022314D02*
X017703Y022314D01*
X017597Y022314D02*
X017597Y022716D01*
X017703Y022716D01*
X017703Y022314D01*
X017703Y022386D02*
X017597Y022386D01*
X017597Y022458D02*
X017703Y022458D01*
X017703Y022530D02*
X017597Y022530D01*
X017597Y022602D02*
X017703Y022602D01*
X017703Y022674D02*
X017597Y022674D01*
X017794Y022314D02*
X017900Y022314D01*
X017794Y022314D02*
X017794Y022716D01*
X017900Y022716D01*
X017900Y022314D01*
X017900Y022386D02*
X017794Y022386D01*
X017794Y022458D02*
X017900Y022458D01*
X017900Y022530D02*
X017794Y022530D01*
X017794Y022602D02*
X017900Y022602D01*
X017900Y022674D02*
X017794Y022674D01*
X017991Y022314D02*
X018097Y022314D01*
X017991Y022314D02*
X017991Y022716D01*
X018097Y022716D01*
X018097Y022314D01*
X018097Y022386D02*
X017991Y022386D01*
X017991Y022458D02*
X018097Y022458D01*
X018097Y022530D02*
X017991Y022530D01*
X017991Y022602D02*
X018097Y022602D01*
X018097Y022674D02*
X017991Y022674D01*
X017991Y023495D02*
X018097Y023495D01*
X017991Y023495D02*
X017991Y023897D01*
X018097Y023897D01*
X018097Y023495D01*
X018097Y023567D02*
X017991Y023567D01*
X017991Y023639D02*
X018097Y023639D01*
X018097Y023711D02*
X017991Y023711D01*
X017991Y023783D02*
X018097Y023783D01*
X018097Y023855D02*
X017991Y023855D01*
X017900Y023495D02*
X017794Y023495D01*
X017794Y023897D01*
X017900Y023897D01*
X017900Y023495D01*
X017900Y023567D02*
X017794Y023567D01*
X017794Y023639D02*
X017900Y023639D01*
X017900Y023711D02*
X017794Y023711D01*
X017794Y023783D02*
X017900Y023783D01*
X017900Y023855D02*
X017794Y023855D01*
X017703Y023495D02*
X017597Y023495D01*
X017597Y023897D01*
X017703Y023897D01*
X017703Y023495D01*
X017703Y023567D02*
X017597Y023567D01*
X017597Y023639D02*
X017703Y023639D01*
X017703Y023711D02*
X017597Y023711D01*
X017597Y023783D02*
X017703Y023783D01*
X017703Y023855D02*
X017597Y023855D01*
X017507Y023495D02*
X017401Y023495D01*
X017401Y023897D01*
X017507Y023897D01*
X017507Y023495D01*
X017507Y023567D02*
X017401Y023567D01*
X017401Y023639D02*
X017507Y023639D01*
X017507Y023711D02*
X017401Y023711D01*
X017401Y023783D02*
X017507Y023783D01*
X017507Y023855D02*
X017401Y023855D01*
D20*
X005478Y009990D02*
X005478Y009870D01*
X005478Y009990D02*
X005868Y009990D01*
X005868Y009870D01*
X005478Y009870D01*
X005478Y009949D02*
X005868Y009949D01*
X005478Y009734D02*
X005478Y009614D01*
X005478Y009734D02*
X005868Y009734D01*
X005868Y009614D01*
X005478Y009614D01*
X005478Y009693D02*
X005868Y009693D01*
X005478Y009478D02*
X005478Y009358D01*
X005478Y009478D02*
X005868Y009478D01*
X005868Y009358D01*
X005478Y009358D01*
X005478Y009437D02*
X005868Y009437D01*
X005478Y009222D02*
X005478Y009102D01*
X005478Y009222D02*
X005868Y009222D01*
X005868Y009102D01*
X005478Y009102D01*
X005478Y009181D02*
X005868Y009181D01*
X005478Y008966D02*
X005478Y008846D01*
X005478Y008966D02*
X005868Y008966D01*
X005868Y008846D01*
X005478Y008846D01*
X005478Y008925D02*
X005868Y008925D01*
X005478Y008711D02*
X005478Y008591D01*
X005478Y008711D02*
X005868Y008711D01*
X005868Y008591D01*
X005478Y008591D01*
X005478Y008670D02*
X005868Y008670D01*
X005478Y008455D02*
X005478Y008335D01*
X005478Y008455D02*
X005868Y008455D01*
X005868Y008335D01*
X005478Y008335D01*
X005478Y008414D02*
X005868Y008414D01*
X005478Y008199D02*
X005478Y008079D01*
X005478Y008199D02*
X005868Y008199D01*
X005868Y008079D01*
X005478Y008079D01*
X005478Y008158D02*
X005868Y008158D01*
X005478Y007943D02*
X005478Y007823D01*
X005478Y007943D02*
X005868Y007943D01*
X005868Y007823D01*
X005478Y007823D01*
X005478Y007902D02*
X005868Y007902D01*
X005478Y007687D02*
X005478Y007567D01*
X005478Y007687D02*
X005868Y007687D01*
X005868Y007567D01*
X005478Y007567D01*
X005478Y007646D02*
X005868Y007646D01*
X005478Y007431D02*
X005478Y007311D01*
X005478Y007431D02*
X005868Y007431D01*
X005868Y007311D01*
X005478Y007311D01*
X005478Y007390D02*
X005868Y007390D01*
X005478Y007175D02*
X005478Y007055D01*
X005478Y007175D02*
X005868Y007175D01*
X005868Y007055D01*
X005478Y007055D01*
X005478Y007134D02*
X005868Y007134D01*
X003181Y007175D02*
X003181Y007055D01*
X003181Y007175D02*
X003571Y007175D01*
X003571Y007055D01*
X003181Y007055D01*
X003181Y007134D02*
X003571Y007134D01*
X003181Y007311D02*
X003181Y007431D01*
X003571Y007431D01*
X003571Y007311D01*
X003181Y007311D01*
X003181Y007390D02*
X003571Y007390D01*
X003181Y007567D02*
X003181Y007687D01*
X003571Y007687D01*
X003571Y007567D01*
X003181Y007567D01*
X003181Y007646D02*
X003571Y007646D01*
X003181Y007823D02*
X003181Y007943D01*
X003571Y007943D01*
X003571Y007823D01*
X003181Y007823D01*
X003181Y007902D02*
X003571Y007902D01*
X003181Y008079D02*
X003181Y008199D01*
X003571Y008199D01*
X003571Y008079D01*
X003181Y008079D01*
X003181Y008158D02*
X003571Y008158D01*
X003181Y008335D02*
X003181Y008455D01*
X003571Y008455D01*
X003571Y008335D01*
X003181Y008335D01*
X003181Y008414D02*
X003571Y008414D01*
X003181Y008591D02*
X003181Y008711D01*
X003571Y008711D01*
X003571Y008591D01*
X003181Y008591D01*
X003181Y008670D02*
X003571Y008670D01*
X003181Y008846D02*
X003181Y008966D01*
X003571Y008966D01*
X003571Y008846D01*
X003181Y008846D01*
X003181Y008925D02*
X003571Y008925D01*
X003181Y009102D02*
X003181Y009222D01*
X003571Y009222D01*
X003571Y009102D01*
X003181Y009102D01*
X003181Y009181D02*
X003571Y009181D01*
X003181Y009358D02*
X003181Y009478D01*
X003571Y009478D01*
X003571Y009358D01*
X003181Y009358D01*
X003181Y009437D02*
X003571Y009437D01*
X003181Y009614D02*
X003181Y009734D01*
X003571Y009734D01*
X003571Y009614D01*
X003181Y009614D01*
X003181Y009693D02*
X003571Y009693D01*
X003181Y009870D02*
X003181Y009990D01*
X003571Y009990D01*
X003571Y009870D01*
X003181Y009870D01*
X003181Y009949D02*
X003571Y009949D01*
D21*
X004049Y016505D03*
X012449Y005205D03*
X021049Y005205D03*
X020049Y030405D03*
X013449Y030405D03*
D22*
X012449Y030405D03*
X021049Y030405D03*
X003049Y016505D03*
X013449Y005205D03*
X020049Y005205D03*
D23*
X003972Y005854D02*
X003780Y005854D01*
X003780Y006146D01*
X003972Y006146D01*
X003972Y005854D01*
X003972Y005917D02*
X003780Y005917D01*
X003780Y005980D02*
X003972Y005980D01*
X003972Y006043D02*
X003780Y006043D01*
X003780Y006106D02*
X003972Y006106D01*
X004095Y005854D02*
X004287Y005854D01*
X004095Y005854D02*
X004095Y006146D01*
X004287Y006146D01*
X004287Y005854D01*
X004287Y005917D02*
X004095Y005917D01*
X004095Y005980D02*
X004287Y005980D01*
X004287Y006043D02*
X004095Y006043D01*
X004095Y006106D02*
X004287Y006106D01*
X004410Y005854D02*
X004602Y005854D01*
X004410Y005854D02*
X004410Y006146D01*
X004602Y006146D01*
X004602Y005854D01*
X004602Y005917D02*
X004410Y005917D01*
X004410Y005980D02*
X004602Y005980D01*
X004602Y006043D02*
X004410Y006043D01*
X004410Y006106D02*
X004602Y006106D01*
X004725Y005854D02*
X004917Y005854D01*
X004725Y005854D02*
X004725Y006146D01*
X004917Y006146D01*
X004917Y005854D01*
X004917Y005917D02*
X004725Y005917D01*
X004725Y005980D02*
X004917Y005980D01*
X004917Y006043D02*
X004725Y006043D01*
X004725Y006106D02*
X004917Y006106D01*
X004917Y006756D02*
X004725Y006756D01*
X004917Y006756D02*
X004917Y006464D01*
X004725Y006464D01*
X004725Y006756D01*
X004725Y006527D02*
X004917Y006527D01*
X004917Y006590D02*
X004725Y006590D01*
X004725Y006653D02*
X004917Y006653D01*
X004917Y006716D02*
X004725Y006716D01*
X004602Y006756D02*
X004410Y006756D01*
X004602Y006756D02*
X004602Y006464D01*
X004410Y006464D01*
X004410Y006756D01*
X004410Y006527D02*
X004602Y006527D01*
X004602Y006590D02*
X004410Y006590D01*
X004410Y006653D02*
X004602Y006653D01*
X004602Y006716D02*
X004410Y006716D01*
X004287Y006756D02*
X004095Y006756D01*
X004287Y006756D02*
X004287Y006464D01*
X004095Y006464D01*
X004095Y006756D01*
X004095Y006527D02*
X004287Y006527D01*
X004287Y006590D02*
X004095Y006590D01*
X004095Y006653D02*
X004287Y006653D01*
X004287Y006716D02*
X004095Y006716D01*
X003972Y006756D02*
X003780Y006756D01*
X003972Y006756D02*
X003972Y006464D01*
X003780Y006464D01*
X003780Y006756D01*
X003780Y006527D02*
X003972Y006527D01*
X003972Y006590D02*
X003780Y006590D01*
X003780Y006653D02*
X003972Y006653D01*
X003972Y006716D02*
X003780Y006716D01*
X006298Y007084D02*
X006298Y007276D01*
X006590Y007276D01*
X006590Y007084D01*
X006298Y007084D01*
X006298Y007147D02*
X006590Y007147D01*
X006590Y007210D02*
X006298Y007210D01*
X006298Y007273D02*
X006590Y007273D01*
X006298Y007399D02*
X006298Y007591D01*
X006590Y007591D01*
X006590Y007399D01*
X006298Y007399D01*
X006298Y007462D02*
X006590Y007462D01*
X006590Y007525D02*
X006298Y007525D01*
X006298Y007588D02*
X006590Y007588D01*
X006298Y007714D02*
X006298Y007906D01*
X006590Y007906D01*
X006590Y007714D01*
X006298Y007714D01*
X006298Y007777D02*
X006590Y007777D01*
X006590Y007840D02*
X006298Y007840D01*
X006298Y007903D02*
X006590Y007903D01*
X006298Y008029D02*
X006298Y008221D01*
X006590Y008221D01*
X006590Y008029D01*
X006298Y008029D01*
X006298Y008092D02*
X006590Y008092D01*
X006590Y008155D02*
X006298Y008155D01*
X006298Y008218D02*
X006590Y008218D01*
X007200Y008221D02*
X007200Y008029D01*
X006908Y008029D01*
X006908Y008221D01*
X007200Y008221D01*
X007200Y008092D02*
X006908Y008092D01*
X006908Y008155D02*
X007200Y008155D01*
X007200Y008218D02*
X006908Y008218D01*
X007200Y007906D02*
X007200Y007714D01*
X006908Y007714D01*
X006908Y007906D01*
X007200Y007906D01*
X007200Y007777D02*
X006908Y007777D01*
X006908Y007840D02*
X007200Y007840D01*
X007200Y007903D02*
X006908Y007903D01*
X007200Y007591D02*
X007200Y007399D01*
X006908Y007399D01*
X006908Y007591D01*
X007200Y007591D01*
X007200Y007462D02*
X006908Y007462D01*
X006908Y007525D02*
X007200Y007525D01*
X007200Y007588D02*
X006908Y007588D01*
X007200Y007276D02*
X007200Y007084D01*
X006908Y007084D01*
X006908Y007276D01*
X007200Y007276D01*
X007200Y007147D02*
X006908Y007147D01*
X006908Y007210D02*
X007200Y007210D01*
X007200Y007273D02*
X006908Y007273D01*
D24*
X004192Y014957D02*
X004192Y015253D01*
X004192Y014957D02*
X003896Y014957D01*
X003896Y015253D01*
X004192Y015253D01*
X004192Y015055D02*
X003896Y015055D01*
X003896Y015153D02*
X004192Y015153D01*
X004192Y015251D02*
X003896Y015251D01*
X003602Y015253D02*
X003602Y014957D01*
X003306Y014957D01*
X003306Y015253D01*
X003602Y015253D01*
X003602Y015055D02*
X003306Y015055D01*
X003306Y015153D02*
X003602Y015153D01*
X003602Y015251D02*
X003306Y015251D01*
D25*
X004234Y019645D02*
X002064Y019645D01*
X004234Y019645D02*
X004234Y017475D01*
X002064Y017475D01*
X002064Y019645D01*
X002064Y017588D02*
X004234Y017588D01*
X004234Y017701D02*
X002064Y017701D01*
X002064Y017814D02*
X004234Y017814D01*
X004234Y017927D02*
X002064Y017927D01*
X002064Y018040D02*
X004234Y018040D01*
X004234Y018153D02*
X002064Y018153D01*
X002064Y018266D02*
X004234Y018266D01*
X004234Y018379D02*
X002064Y018379D01*
X002064Y018492D02*
X004234Y018492D01*
X004234Y018605D02*
X002064Y018605D01*
X002064Y018718D02*
X004234Y018718D01*
X004234Y018831D02*
X002064Y018831D01*
X002064Y018944D02*
X004234Y018944D01*
X004234Y019057D02*
X002064Y019057D01*
X002064Y019170D02*
X004234Y019170D01*
X004234Y019283D02*
X002064Y019283D01*
X002064Y019396D02*
X004234Y019396D01*
X004234Y019509D02*
X002064Y019509D01*
X002064Y019622D02*
X004234Y019622D01*
D26*
X004253Y021770D02*
X003817Y021770D01*
X004253Y021770D02*
X004253Y021020D01*
X003817Y021020D01*
X003817Y021770D01*
X003817Y021135D02*
X004253Y021135D01*
X004253Y021250D02*
X003817Y021250D01*
X003817Y021365D02*
X004253Y021365D01*
X004253Y021480D02*
X003817Y021480D01*
X003817Y021595D02*
X004253Y021595D01*
X004253Y021710D02*
X003817Y021710D01*
X002481Y021770D02*
X002045Y021770D01*
X002481Y021770D02*
X002481Y021020D01*
X002045Y021020D01*
X002045Y021770D01*
X002045Y021135D02*
X002481Y021135D01*
X002481Y021250D02*
X002045Y021250D01*
X002045Y021365D02*
X002481Y021365D01*
X002481Y021480D02*
X002045Y021480D01*
X002045Y021595D02*
X002481Y021595D01*
X002481Y021710D02*
X002045Y021710D01*
M02*
